<svg xmlns="http://www.w3.org/2000/svg" viewBox="0 0 2560 1600"><symbol id="c" viewBox="-73.419 -100 146.837 200"><path d="M71.28 37.723c-3.756 6.747-4.247 7.541-8.502 12.186-2.494 2.723-5.714 4.737-11.894 7.441-.16.07-.174.133-.099.454.39 1.689.489 5.069.311 10.573-.139 4.283-1.263 8.585-3.058 11.699-.727 1.261-2.146 3.002-3.031 3.717a3 3 0 0 0-.353.313c-.02.031-.055.056-.08.056s-.199.108-.389.24c-6.216 4.333-14.882 1.846-23.363-.227-3.45-.843-4.852-1.475-6.952-2.123-2.02 2.025-3.169 3.247-6.98 5.868-3.835 2.637-3.67 2.256-7.323 4.455-1.399.842-3.051 1.691-5.984 3.073-1.302.614-2.587 1.037-6.184 2.038-3.039.846-4.663.918-7.77 1.436-1.873.312-3.077.402-4.51.621-.892.137-1.561.192-2.992.339-1.986.205-3.576.139-4.575-.19-.202-.066-.293-.079-.305-.044-.029.088-.122.057-.258-.087a1.8 1.8 0 0 0-.394-.272c-1.159-.588-2.29-1.63-3.354-2.523-.988-.83-2.823-2.746-4.288-4.476-.728-.86-1.099-1.261-2.31-2.496-1.574-1.606-1.501-1.622-2.579-2.888-4.898-5.753-9.153-12.137-11.895-19.111l-.25-.634c-.047-.116-.098-.126-.992-.19-1.72-.123-5.289-1.2-6.829-2.06-2.243-1.253-4.531-3.622-5.666-5.868a14 14 0 0 0-.221-.424c-1.358-2.266-2.004-7.095-1.407-10.522.646-3.707 1.44-5.987 3.841-11.023 1.923-4.034 4.442-8.475 5.747-10.13.479-.608.601-.943 1.004-1.37.338-.358.334-.318.067-.672-.906-1.201-2.867-4.455-3.468-5.756-.588-1.272-.78-1.596-1.487-3.751-1.076-3.279-1.558-5.566-1.835-8.707-.018-.209-.058-.425-.087-.48s-.037-.101-.016-.101.029-.759.019-1.686c-.043-3.848.396-5.221.735-7.066.085-.463.151-.549.397-1.496.554-2.137 1.647-5.213 2.174-6.117.773-1.327 1.482-3.007 3.968-5.812 6.501-7.334 10.83-6.098 13.673-8.953.67-.672.805-.724 1.202-.462.091.06.196.099.232.085q.068-.028.045.056c-.038.155 1.515 1.608 2.282 2.135.64.44 2.465 1.061 2.772.943.032-.012.064-.007.071.01s.496.109 1.086.203c2.446.389 4.746.713 8.486 3.209 2.544 1.698 5.452 4.833 8.272 6.104 2.551 1.149 4.403.538 6.948-2.295 2.239-2.492 3.778-3.076 6.59-2.501 2.26.462 5.32 2.862 6.41 5.027.189.376.204.368.333-.184.54-2.306 1.55-5.019 3.418-6.642C11.685-49.781 31.32-76.256 53.447-100h5.386C33.043-72.377 16.811-44.624 6.581-14.973c-.162 1.258-.866 2.544-1.455 3.6-.332.594-.964 1.863-.94 1.887a18.33 18.33 0 0 0 1.12-.948c.189-.219 1.005-.736 1.429-1.095.338-.287.295-.218 1.384-.953.846-.571 1.047-.68 2.024-1.097 3.489-1.49 8.136-.874 12.572 1.666 2.77 1.586 3.6 1.775 7.374 1.677 4.249-.111 5.608.126 8.797 1.533 2.436 1.075 5.706 3.723 7.569 6.128 3.178 4.103 2.871 4.06 4.062 5.671.411.555 1.043 1.565 1.7 2.545 1.487 2.218 2.733 4.803 3.935 6.706.653 1.033 1.933 3.47 4.642 8.096.506.864 2.951 4.302 4.43 6.074.407.487 1.539 1.731 1.594 1.75.02.007.264.226.542.485 6.551 6.117 7.679 2.218 3.92 8.971m.599-2.801c.424-.766.46-.692-.622-1.305-2.773-1.571-6.019-2.144-10.002-3.055-4.857-1.11-5.37-.985-11.163-1.794-11.817-1.651-14.074-1.62-22.907-4.377-5.557-1.735-10.983-4.934-15.178-8.948-1.318-1.261-2.908-2.904-2.811-2.904.019 0-.037-.075-.125-.167-1.055-1.11-2.999-3.964-4.266-6.263l-.753-1.362c-1.62-2.93-2.918-6.475-2.923-7.985-.001-.35-.069-.334-.217.052C.526-2.187.843-.624 2.098 2.67c.942 2.471 3.463 6.866 6.733 10.672 3.191 3.713 7.788 7.468 12.334 10.075 6.368 3.652 10.637 4.746 25.244 6.471 4.206.497 5.526.716 9.779 1.093 4.015.356 6.921.912 10.646 2.039 2.009.608 3.631 1.411 4.292 2.127.422.457.366.473.753-.225M47.836 25.49c.135-.034-1.159-.234-2.298-.357-2.194-.235-9.223-.527-11.364-.63-5.314-.254-8.42-1.1-4.654-.017 7.975 2.293 9.979 2.148 19.635 3.525l8.685 1.213c.183.042.054-.06-.848-.666-1.236-.831-1.791-1.108-3.193-1.597-1.418-.495-1.792-.842-4.654-1.228-1.173-.158-1.447-.209-1.309-.243m-7.188-1.004c3.581.236 4.666.176 8.529.934 2.655.521 5.193.753 8.947 3.672.497.387-.115.087 3.98 1.039.793.184.812.181.514-.089-2.476-2.241-8.135-4.957-12.503-6a122.06 122.06 0 0 0-5.394-1.094c-3.71-.61-10.372-.833-14.119-.92-3.456-.08-7.3-.349-10.557-1.513-.594-.212-.525-.163.599.424 2.379 1.242 4.569 2.21 5.392 2.382 3.019.631 11.259.944 14.612 1.165M3.009-6.316l.248-.569a3.34 3.34 0 0 0-.584.67c-.063.145-.07.149-.096.055-.06-.207-.101-.096-.755 1.083-.108 3.405.187.966 1.187-1.239m68.302 42.265c.615-1.052-6.279-3.91-15.079-4.679-4.445-.388-5.398-.585-10.248-1.139-11.312-1.291-16.608-2.383-20.823-4.29-6.153-2.785-12.362-7.414-16.793-12.52C4.234 8.556.778 1.425.508-1.504c-.034-.365-.052-.37-.138-.034-.058.228-.015.432.323 1.529C2.459 5.737 7.089 13.76 10.841 17.579c6.078 6.187 13.465 10.677 20.464 12.439 5.05 1.271 6.759 1.478 14.456 1.745a68.65 68.65 0 0 1 14.735 2.204c5.482 1.481 8.093 2.531 9.305 3.742.181.181.335.324.342.317s1.16-2.065 1.168-2.077M-1.374 2.519c.076-.44.131-.806.122-.816-.05-.05-1.798 6.433-1.593 8.15.592 4.953 1.064 6.398 2.136 10.835a34.5 34.5 0 0 0 1.53 4.769c1.496 3.717 4.489 8.148 8.66 12.823a930 930 0 0 1 7.386 8.486c2.032 2.367 4.277 5.252 5.466 7.025.285.425.525.754.533.73.074-.222-.921-3.575-1.606-5.41-.794-2.128-3.637-6.56-6.516-10.159a179 179 0 0 1-2.271-2.902c-1.892-2.488-1.929-2.182-3.93-4.622-2.242-2.734-4.789-5.238-7.431-9.734-1.451-2.469-1.876-3.661-2.389-6.698-1.005-5.951-1.015-7.18-.097-12.477M24.04 57.603c2.218 4.42 6.541 8.862 10.488 12.807 7.081 7.076 7.918 8.344 9.141 10.757.254.501.462.887.462.856 0-.121-.231-.953-.404-1.456-1.211-3.516-3.088-5.662-6.153-9.305-2.394-2.845-3.242-3.798-4.938-5.541-8.675-8.916-7.996-10.322-8.712-11.325-.22-.308-.257-.339-.223-.184.307 1.399.305 2.205.339 3.391m-.115 4.344c.151.464.639 1.365 1.161 2.144 2.817 4.205 4.829 5.245 11.217 10.85 3.867 3.394 5.732 4.81 7.279 7.111.383.569.334.372-.139-.565-1.14-2.26-1.561-3.069-9.006-10.498-3.594-3.585-8.061-7.975-10.437-12.596-.13 1.25-.139 3.36-.075 3.554m3.599-5.609c.536.286.505.296.468-.14-.148-1.749-1.148-4.728-2.219-6.61-1.693-2.976-2.512-3.978-6.712-8.204-3.796-3.82-4.795-4.925-6.42-7.103-1.564-2.097-3.547-5.582-4.494-7.901-1.04-2.546-1.669-4.289-1.974-5.47-.648-2.505.401 1.608.405 6.852 1.218 1.512 1.559 1.808 3.063 3.622 2.087 2.518 1.186 1.096 3.656 4.328 1.944 2.544 3.014 3.641 5.469 7.301 2.646 3.945 3.311 5.288 4.22 8.519.435 1.55 2.463 3.698 4.538 4.806m14.305 2.428c-.035.305-.107.287.774.188 1.709-.194 2.739-.484 3.41-.659-.221-1.186-1.292-2.827-1.986-3.804-10.441-14.711-23.71-16.441-31.21-30.476-1.522-2.849-1.88-3.729-2.131-5.241-.051-.306-.111-.524-.164-.59-1.031-1.297-1.014-1.24-.977-1.08a65.13 65.13 0 0 1 .156.748c.916 4.457 2.965 9.033 5.469 12.213 6.035 7.664 16.4 13.48 21.882 19.14 2.498 2.579 5.003 7.592 4.777 9.561m-1.334-3.874c-1.598-3.65-3.688-5.997-9.246-10.384-5.55-4.38-13.642-10.115-17.471-16.002C11.74 25.373 9.847 20.9 9.25 16.583l-1.059-1.432c-.017.869.583 3.858.823 4.765 1.041 3.926 4.022 9.224 7.081 12.582 1.765 1.938 7.337 7.239 7.518 7.413 5.334 5.121 8.942 8.196 10.361 9.913 1.172 1.418 2.206 3.018 2.738 4.236 1.454 3.33 1.389 3.514 1.448 4.951.883.092 3.41.051 3.465.016.218-.139-.447-2.573-1.13-4.135m-4.526-1.895c-1.483-2.569-3.04-4.268-8.068-8.802-1.916-1.728-9.328-8.813-11.915-11.518-2.659-2.779-5.843-8.183-6.925-11.754-.448-1.478-.752-2.964-.962-4.701-.191-1.579-.136-1.385-.592-2.071-.516-.776-.498-.761-.462-.384.17 1.744.873 5.573 1.409 7.68 3.22 12.651 17.458 21.22 22.252 27.205 1.974 2.464 4.494 7.983 4.494 9.841 0 .12.017.217.038.217a17.11 17.11 0 0 1 .614.088c.716.109 2.083.23 2.125.189.348-.345-.903-4.076-2.008-5.99m-2.965.007c-1.95-3.925-3.442-5.71-8.092-9.692C13.153 33.244 9.463 27.318 7.835 19.706c-.95-4.445-.975-5.664-1.037-6.609a84.75 84.75 0 0 0-1.188-1.764c-.076 0 .025 2.15.143 3.036.178 1.337.919 5.064 1.229 6.184.537 1.939 1.838 5.078 2.785 6.72 1.182 2.049 1.952 3.217 2.947 4.465 1.234 1.55 1.493 1.862 2.018 2.436 4.027 4.407 6.498 7.494 8.5 9.599 2.994 3.149 4.295 4.74 5.388 6.585 1.16 1.958 1.395 2.458 2.121 4.506.536 1.512.612 1.619.846 2.415.228.778.117.724 2.452 1.183l.904.185c.411.121-.74-3.23-1.939-5.643m-2.451 1.777c-2.285-6.351-5.451-8.313-10.422-14.222-1.262-1.5-4.689-5.309-4.733-5.359-.913-1.03-4.823-4.862-7.364-11.082-1.219-2.984-1.382-3.58-2.239-8.198-.438-2.359-.423-3.176-.423-4.987-1.259-2.076-.663-1.019-1.704-2.882.06.55.011.261.543 3.371.303 1.774.333 1.915.896 4.197 1.549 6.284 1.559 6.319 2.771 9.415.959 2.449 1.854 4.265 3.134 6.354 2.084 3.404 3.29 4.842 8.227 9.817 3.954 3.984 4.762 4.951 6.423 7.696 1.266 2.092 2.384 5.003 2.586 7.796 1.826.762 3.311 1.222 3.326 1.128.034-.206-.639-1.981-1.021-3.044M4.84 15.78q.005.08.027.027c.031-.078-.032-.142-.027-.027m18.134 39.481c-.343-.557-3.076-4.182-4.132-5.481C8.788 37.412 1.683 32.497-1.154 20.555c-.433-1.822-1.393-5.379-1.712-7.726-.163-1.201-.176-.783-.064 2.166.129 3.401.786 7.639 1.832 11.811.641 2.557 1.195 3.989 2.729 7.055 7.464 14.918 17.266 22.119 21.02 28.5.204.347.269.396.27.201 0-.068.02-.345.044-.616.214-2.421.219-6.343.009-6.685M-1.054 10.552C-.741 13.406.064 17.845.31 18.073c.079.073-.204-3.441-.367-4.549-.239-1.629-1.089-4.886-1.113-4.936-.044-.094.031 1.192.116 1.964m-.012-2.329C-.538 9.6.125 12.586.279 14.281c.255 2.809.238 3.244.255 4.443.505 1.07.545 1.141 1.064 2.131.106-.865-.037-2.922-.09-3.472-.181-1.887-.539-3.936-1.294-7.411-1.639-7.543-.904-5.666-.447-3.439 1.177 5.748 2.463 9.694 2.065 14.711l.26.437c.358.602 1.271 1.992 1.293 1.97.038-.038-.154-3.465-.179-4.28-.133-4.239-.603-6.567-1.584-11.878-.59-3.194-.943-4.45-1.383-6.492A20 20 0 0 1 .05.058c-.06-.555-.699 3.471-.791 4.019-.368 2.193-.488 3.722-.325 4.146M.148-.252c.211.55 1.29 5.298 1.653 7.276 1.541 8.395 1.7 8.943 1.786 16.952.919 1.366 2.634 3.434 2.731 3.47.055.021.007-.229-.054-1.177-.342-5.32-.55-6.621-1.828-11.474q-.432-1.646.094-.009c.365 1.14.391 1.197.064-.153-.506-2.088-.972-5.161-1.236-7.207l-.26-.558c-.392-.848-.235-.618-.642-1.496C1.347 2.979.746 1.429.372-.009.173-.771.166-.786.129-.565a.7.7 0 0 0 .019.313m69.853 38.543c-.369-.357-1.325-1.488-4.839-2.665-1.24-.415-5.142-1.497-6.452-1.789-13.772-3.067-15.01-.617-26.718-3.324-7.86-1.818-14.777-6.281-20.613-11.9-1.292-1.244.173.381 1.916 2.125 3.399 3.4 5.315 4.955 8.541 6.932 2.278 1.395 6.155 3.193 7.916 3.671a3.11 3.11 0 0 1 .335.112c1.541.665 7.287 1.876 13.329 2.029 6.458.165 8.983.354 12.28.921 3.531.607 4.443.929 9.288 3.276 3.069 1.486 3.203 1.611 4.058 2.276zm-2.34 4.078c.574-.958.568-.834.065-1.241-2.918-2.367-6.795-3.569-16.161-5.013-3.03-.467-6.72-1.659-6.72-2.17 0-.087.002-.086.413.136 1.136.613 4.103 1.411 6.645 1.787 8.788 1.299 12.903 2.589 15.887 4.98.279.224.513.4.52.393.017-.018.551-.989.563-1.01-1.19-1.137-6.292-3.422-7.753-4.062-7.077-3.099-19.403-1.942-24.314-2.984-.513-.109 1.472.85 2.51 1.212 1.482.517 3.41 1.049 5.393 1.488 3.066.678 4.211.866 7.658 1.257 1.4.159 4.012.526 4.913.691 4.089.748 7.907 2.807 9.545 5.147.277.393.2.449.836-.611m-.796 1.237c.064-.119-.138-.426-.74-1.121-1.348-1.558-4.708-3.348-7.638-4.071-3.467-.855-7.527-.954-11.961-1.853-5.369-1.087-8.69-2.186-10.12-3.347-.083-.067-.316-.125-.909-.225-1.517-.255-3.287-.606-4.773-1.054-.47-.142 1.809 1.453 3.471 2.428 4.131 2.425 7.257 2.547 12.682 3.605 6.383 1.244 10.431 1.639 15.048 5.107 1.363 1.024 2.055 1.799 2.869 3.214.052.091 1.792-2.165 2.071-2.683m-4.3 5.277c.039-.005 1.752-1.913 2.009-2.239.172-.217-1.017-1.845-1.871-2.561-3.364-2.824-6.522-4.087-13.281-5.309l-6.408-1.205c-2.85-.476-4.544-.891-6.05-1.484-2.233-.878-5.074-2.611-6.586-4.016l-.38-.353c-4.563-1.619-4.847-2.083-4.48-1.619 1.843 2.332 6.225 5.375 9.995 6.942 4.035 1.677 6.156 2.154 10.449 3.362 1.363.383 7.936 2.077 11.758 3.907 2.357 1.128 4.255 2.868 4.739 4.344.041.129.089.233.106.231m-3.224 2.95c.224 0 2.923-2.439 2.989-2.702.157-.624-1.522-2.538-3.219-3.67-1.627-1.086-6.201-2.849-10.114-3.9-9.44-2.535-15.296-4.066-21.161-8.748-1.127-.899-2.242-2.038-2.788-2.845-.226-.334-.255-.359-.658-.565-1.909-.976-3.592-2.039-3.592-2.039-.026 0 .633 1.016 1.085 1.674 3.442 5.009 8.034 8.015 15.995 10.472 2.898.894 6.647 2.389 11.347 4.524 5.586 2.537 8.574 4.805 9.968 7.565.068.129.133.234.148.234m-3.591 2.233c.214 0 3.34-1.926 3.34-2.058 0-.556-1.961-2.916-3.26-3.923-2.887-2.24-10.658-5.839-17.549-8.128-4.374-1.453-5.559-1.909-7.546-2.902-3.698-1.848-5.708-3.506-8.39-6.923-.407-.518-1.673-2.425-1.858-2.796-.12-.241-.179-.301-.554-.556-2.49-1.698-2.825-2.211-2.477-1.663 4.662 7.335 11.116 12.221 23.259 17.608 8.092 3.59 11.208 5.586 13.526 8.663.516.685 1.279 2.028 1.414 2.489.03.104.073.189.095.189m-5.126 2.445c.074.074 4.848-2.175 4.848-2.284 0-.44-1.043-2.175-1.961-3.264-6.625-7.854-22.426-8.673-33.691-22.103-1.537-1.832-2.934-3.928-2.744-4.117.025-.025-.155-.208-.461-.467-.745-.631-2.266-2.082-2.947-2.756-.362-.359-.659-.635-.659-.615 0 .061.826 1.645 1.211 2.322 1.429 2.514 4.337 6.155 7.228 9.052 3.359 3.365 8.307 6.712 15.607 10.558 7.102 3.741 10.128 6.298 12.449 10.515.33.599.809 1.91 1.011 2.763a2.86 2.86 0 0 0 .109.396m-.197.067c0-.032-.097-.314-.216-.627-.658-1.73-1.876-6.637-11.483-11.875-1.295-.706-7.131-3.679-11.342-6.59-4.448-3.075-6.782-5.305-10.873-10.391-1.553-1.93-3.378-4.974-3.776-6.296-.17-.566-.391-.548-1.493-1.821-.511-.59-.371-.422-.156.481.379 1.587 2.178 5.169 3.683 7.332 8.374 12.035 21.03 14.626 30.176 28.48.505.764 1.047 1.919 1.219 2.592a3.12 3.12 0 0 0 .092.319c.067.113 4.169-1.466 4.169-1.604m-1.096 2.081c.358.53.593.965.745 1.38.122.332.184.399.154.167a35.3 35.3 0 0 0-.166-1.574c-.112-.848-.506-1.033-1.047-.491-.012.011.129.245.314.518m-.114.206a11 11 0 0 0-.438-.62c-.032-.019-1.427.496-1.538.527-.07.019-.041.072.192.349 1.186 1.409 1.857 2.861 2.611 5.657l.263.928c.009.01.032-.52.048-1.178.08-3.157-.124-4.173-1.138-5.663m.036 16.099c.751-2.589 1.264-7.119.978-8.626-.534-2.809-1.857-5.883-3.123-7.259-.096-.104-.187-.189-.203-.187 0 0-1.069.329-1.721.472a8 8 0 0 0-.558.134c-.01.008.102.151.249.317 2.479 2.797 4.286 8.755 4.317 14.227.006.949.015 1.081.061.922m-1.088 3.058c.777-1.703 1.04-2.762.654-6.676-.231-2.339-.916-5.197-1.709-7.128-.688-1.676-2.149-4.125-2.747-4.605-.177-.142-.175.055-2.644.267 1.96 2.041 4.326 6.367 5.091 9.078.369 1.314 1.176 5.991 1.355 9.064m-.672 1.333c.585-1.055.584-1.397-.012-5.24-.605-3.9-.829-7.262-4.911-12.793-.663-.898-.54-.77-1.185-1.398l-3.338-.036c3.682 3.09 6.056 7.266 7.513 11.905.705 2.243 2.001 6.012 1.446 8.283-.044.18.13-.078.487-.721m-1.16 1.765c1.075-1.255.234-6.385-1.935-11.805-1.253-3.132-3.412-6.293-5.927-8.681-1.328-1.26-.383-.511-4.029-1.234-1.101-.218-1.072-.214-1.072-.164 0 .065 1.13 1.19 2.177 2.168 4.54 4.243 10.834 12.913 10.676 19.151l-.018.716zm-1.236.955c-.047.579-.047.579.369.097.873-1.012.707-3.308-.479-6.629-.94-2.631-2.094-4.734-4.226-7.701-3.966-5.518-6.137-6.568-7.47-8.34-.199-.264-.332-.4-.409-.418a29 29 0 0 1-2.269-.619c-.399-.13-.726-.226-.726-.215 0 .097 1.169 1.679 1.808 2.447.415.499 2.339 2.55 3.665 3.907 1.928 1.973 2.539 2.636 4.22 4.577 4.155 4.795 5.851 8.76 5.517 12.894m-.534.558c.029.387.046.417.161.29.097-.107.186-1.258.148-1.905-.153-2.58-.89-4.821-2.44-7.419-3.41-5.713-11.599-12.293-12.664-15.403-1.619-.61-2.812-1.068-4.19-2.114-.809-.615-1.182-1.147-.599-.177 1.391 2.316 3.646 5.02 7.812 9.368a80.98 80.98 0 0 1 4.354 4.862c3.401 4.05 3.677 4.349 4.516 5.542 1.577 2.244 2.759 5.077 2.902 6.956m-.818.043c-1.22-1.89-1.943-2.636-5.552-5.726-4.656-3.987-2.178-1.965-6.14-5.268-3.464-2.887-6.863-5.889-8.23-9.512-.091.584-.143 1.534-.249 2.3-.113.811 1.053 2.965 3.031 5.604 4.409 5.879 14.058 10.857 16.751 12.881.952.715 1.006.677.389-.279m.02 1.014c.134-.094.125-.104-.474-.502-5.794-3.851-12.205-7.13-16.579-12.579-1.051-1.309-2.541-3.67-3.036-4.811-.182-.419-.263-.528-.263-.353 0 .169-.403 1.703-.599 2.284-.254.75-.272.622.18 1.302 6.757 10.177 20.098 15.131 20.771 14.659m-.932.579c.612-.328.616-.3-.063-.471-2.991-.754-8.255-3.47-11.624-5.999-3.419-2.566-7.396-6.738-8.49-8.905-.222-.44-.042-.404-.835 1.313-.181.392-.32.739-.308.769.237.619 3.977 5.271 8.196 8.095 3.646 2.44 8.448 4.56 11.976 5.286.728.151.698.153 1.148-.088m-.901.443c.089-.037.065-.103-.038-.103-.307 0-1.775-.377-2.976-.764-4.224-1.363-8.954-3.932-11.912-6.471-2.004-1.72-4.228-3.878-5.585-6.142-.071-.118-.178.208-1.184 1.915 1.565 2.229 7.234 6.391 10.225 8.147 2.615 1.536 6.797 3.215 9.318 3.743.999.207.794.238 2.152-.325M-5.731 17.986c.08.095.112.203.135.453.076.825.919 7.051 1.567 9.945a112.05 112.05 0 0 0 2.668 9.272C2.225 47.793 3.641 54.089 9.11 61.979c3.289 4.746 6.53 8.346 8.817 11.285.774.995.662.962 1.063.304 1.698-2.786 2.391-4.2 2.162-4.412-.847-.786-11.06-14.329-15.156-21.408-2.035-3.517-4.057-6.699-6.762-13.552-1.722-4.363-3.46-11.643-4.046-16.945l-.309-2.742c0-.385-.101.013-.393 1.548-.371 1.941-.352 1.77-.217 1.929m-.325.861c0 .002-.57 3.032-.851 4.453.094 2.149.068 2.857 1.177 8.573.417 2.15 1.696 7.23 2.647 10.511C-.794 50.282 5.23 62.603 9.723 69.915l5.471 9.201c.167 0 1.709-2.155 2.787-3.897l.436-.704c-.958-1.099-2.865-3.455-3.824-4.575-.876-1.022-2.343-2.878-3.706-4.689-4.753-6.313-6.892-10.489-9.865-19.257-1.039-3.065-4.566-12.496-5.784-18.858-.436-2.277-.747-4.565-.854-5.266-.286-1.878-.418-3.236-.44-3.023m45.878 66.649c.488-.133.487-.145-.011-.237-2.36-.44-7.441-2.492-10.014-4.044-3.183-1.92-7.186-4.989-8.784-6.737-.54-.591-.728-.882-.896-1.123-.648 1.061-.811 1.306-.76 1.4.387.723 2.503 2.795 4.413 4.321 2.923 2.335 5.573 3.776 10.248 5.568 3.273 1.256 3.953 1.356 5.804.852m-2.98.325c-.467-.094-1.493-.402-2.177-.653-4.766-1.751-7.394-3.085-10.117-5.135-2.61-1.966-4.31-3.555-5.143-4.807-.272-.41-.119-.509-1.13 1.132 1.37 1.545 4.016 3.529 5.762 4.822 3.188 2.361 7.024 4.431 8.55 4.612 1.919.227 5.36.251 4.255.029m-5.852-.246s-1.887-.847-4.162-2.161c-1.902-1.098-6.858-4.665-8.682-6.844l-.492.741c-.599.9-.596.787-.034 1.471 1.256 1.529 6.622 5.221 8.425 5.797.425.135 4.904 1.037 4.945.996m-9.766-2.081 3.478.801c.015-.001-.234-.137-.553-.304-.877-.457-1.663-.964-3.304-2.13-2.19-1.556-3.382-2.599-3.761-3.292-.147-.269-.092-.302-.638.39-.599.76-.629.606.298 1.532 1.93 1.928 3.023 2.66 4.48 3.003m-6.934-1.879c.02.016.247.076.505.132.742.162 4.287 1.273 4.287 1.193 0-.01-.216-.177-.48-.371-1.087-.799-2.311-1.919-2.664-2.437-.215-.315-.179-.32-.497.065l-.726.855c-.254.293-.445.547-.425.563m-2.807 1.61c.146 0 2.082-2.089 3.255-3.511l.189-.229c-1.263-1.87-5.89-9.662-7.02-11.621-4.029-6.985-8.393-16.055-10.87-23.376-.931-2.752-3.58-12.483-4.275-18.62a5 5 0 0 0-.066-.495 250.45 250.45 0 0 1-.435 1.965c-.472 2.115-.467 2.071-.384 3.308.237 3.516.41 4.589 1.573 9.717C-3.653 53.148-2.533 53.205 4.872 70.23c2.26 5.196 5.412 10.814 5.836 11.632q.706 1.365.775 1.363m-4.48 3.565c.081.087 4.074-3.035 4.165-3.255 0 0-4.226-7.276-6.741-13.058-7.3-16.784-8.539-16.986-11.623-30.789-.609-2.727-1.224-5.494-1.329-8.305-.027-.715-.082.013-1.035 3.639.028 4.528.521 8.67 1.339 12.307.973 4.327 4.424 16.481 5.776 20.347 1.471 4.204 5.064 11.447 7.403 15.415a84 84 0 0 1 2.045 3.699m-5.762 3.615c.013.013.709-.372 2.032-1.128.432-.246 3.003-1.912 3.538-2.332-9.179-15.296-9.913-19.347-13.523-31.98-2.747-9.612-3.097-13.938-3.299-18.291-.279.961-.395 1.233-.39 2.969.006 1.852.253 4.229.436 7.613.145 2.689.639 6.42 1.565 11.833.361 2.111 2.051 9.204 3.007 12.62 1.355 4.842 3.399 9.919 3.419 9.974l2.979 8.06.236.662m-.915.544L.9 90.61c.02-.015-.508-1.374-1.099-2.831-.643-1.584-1.659-4.432-2.424-6.389-2.945-7.527-3.582-10.686-5.373-18.193-.746-3.126-1.082-5.456-1.501-8.06-.948-5.884-.754-5.859-1.137-10.873-.205-2.681-.214-3.066-.27-4.421l-.714 2.813c-.077 5.33-.024 6.286.178 10.493.461 9.575 1.056 11.264 2.053 17.214.664 3.962 1.877 8.862 2.254 10.694.629 3.05 1.394 5.94 2.162 8.171.336.975.919 2.984 1.034 3.565.154.773 1.181-.043 4.263-1.844m-10.665 5.023c2.403-.697 3.091-1.05 6.133-2.516-.021-.72-.981-3.577-1.232-4.258-1.134-3.08-1.858-6.819-2.608-10.104-1.733-7.59-1.405-6.405-2.726-13.865-1.297-7.324-1.464-20.131-1.423-20.081l-.996 3.515c-.245.816-.248.833-.241 1.362.007.556.077 2.005.118 2.434.113 1.18.54 8.816.579 9.288.812 9.837 2.16 11.976 2.461 23.331.038 1.423-.123 6.068-.252 7.278-.227 2.132-.884 3.748-.922 3.87-.019.06.197.011 1.109-.254m-6.91 1.631c.549 0 4.696-.915 5.082-1.121.574-.307 1.176-3.306 1.286-6.409l.09-2.286c.07-1.58.003-5.892-.112-7.174-.687-7.682-.308-3.668-1.247-10.56-.62-4.552-.792-4.655-1.166-11.386l-.445-8.217c-.888 2.467-.796 1.755-.786 4.891.01 3.221-.052 4.713-.288 6.899-.451 4.183-.575 7.96-.36 11.007.436 6.19.867 9.913.428 15.003-.256 2.97-1.278 6.838-2.392 9.05-.112.22-.137.303-.09.303m-4.005.611 3.188-.497c.354-.049.539-.381 1.148-2.057 1.69-4.654 2.257-10.252 1.682-16.589-.108-1.193-.265-3.553-.386-5.827-.076-1.432-.076-5.404.001-6.408.449-5.892.644-5.53.697-9.98.035-2.928.112-3.536-.006-3.204-.086.24-.942 2.381-1.627 4.386-.349 1.024-.346.941-.261 6.915.06 4.218.1 10.449-.294 14.609-.646 6.82-.488 6.219-1.162 9.199-.809 3.574-2.096 7.189-3.249 9.126-.257.428-.269.413.269.327m-3.781.507c.439-.071 2.679-.359 2.791-.359.014 0 .056-.075.094-.167a3 3 0 0 1 .215-.391c1.018-1.558 2.375-5.342 3.26-9.087.577-2.445.629-2.815.873-6.235.315-4.418.23-2.077.493-7.519.182-3.768.028-13.457.072-14.367.046-.974.138-.924-1.145 2.44-.001.656.007 2.279-.042 2.929-.172 2.299.027 7.447-1.366 15.906-.658 3.995-1.437 7.24-2.181 9.085-1.246 3.092-2.888 6.127-4.242 7.847-.064.081.351.052 1.178-.082m-1.774.203c1.534-1.93 3.068-4.974 4.009-7.159 3.343-7.766 3.704-21.021 4.084-27.328.039-.653.052-.672-.366.558-.592 1.742-.577 1.662-.73 4.03-.096 1.48-1.228 10.454-2.644 14.669-1.538 4.579-4.503 11.059-7.764 15.45.772.028.782.046 3.411-.22m-5.337-.032c.074.039.654.174 1.506.207 2.839-3.773 5.233-8.697 6.92-13.039 2.05-5.275 2.243-8.543 2.904-11.95.219-1.132.852-6.235.764-6.323-.007-.007-.2.484-.428 1.092-.688 1.837-1.222 3.096-2.268 5.348-3.81 8.206-3.648 9.708-5.034 13.909a690 690 0 0 0-.863 2.635c-.88 2.706-2.65 6.768-3.429 7.869-.135.19-.142.215-.072.252m-2.201-1.75c.128.674.11.645.603.97.754.497.452.435.579-1.537.079-1.22.073-5.167 2.638-11.632 2.568-6.475 3.097-6.924 4.181-9.399.677-1.546.999-2.307 1.758-3.885 1.631-3.391 1.373-3.14 3.254-6.743 2.016-3.864 2.73-5.687 6.391-17.526 2.063-6.671 2.782-7.558 3.998-14.155.443-2.404 1.609-8.048 1.714-8.46.052-.204.085-.397.073-.428-.029-.077.188-1.008.529-3.079.878-5.338 1.992-9.246 2.523-13.463.122-.972.228-1.511.427-2.768.44-2.793.645-3.036-.807 1.831-1.021 3.421-.885 3.29-1.422 5.737-.434 1.975-.17 1.492-1.095 6.701-.182 1.023-.227 1.225-.276 1.225-.183 0-.794 2.331-.955 3.642-.104.845-.133.703-.205 1.278-.066.532-.213.772-.354 1.404-.129.577-.235.987-.203 1.156.036.193-.274 2.248-.409 2.501-.062.116-.55 2.562-.615 3.059-.406 3.121-1.976 7.635-5.693 18.687-2.634 7.83-3.335 7.894-5.916 12.637-2.68 4.925-5.384 7.973-7.995 16.41l-.602 1.9c-.639 1.97-1.676 6.4-1.893 8.08-.211 1.623-.35 5.218-.228 5.857m-25.607-44.47c1.514-2.57 3.345-4.164 7.277-6.34 10.302-5.7 14.682-4.382 28.176-12.581 5.034-3.059 4.728-3.159 7.546-5.516 1.087-.909 1.981-1.837 3.443-3.573 2.144-2.547 2.19-2.604 3.163-3.995.788-1.126.732-.998.938-2.142.099-.55.174-1.007.166-1.015-.036-.036-1.128 1.136-1.538 1.648-5.174 6.478-7.806 8.648-15.147 13.215-1.544.961-1.633 1.011-2.813 1.601-5.689 2.843-7.615 3.624-11.069 4.486-5.043 1.259-9.58 2.91-12.552 4.568-3.761 2.098-5.924 3.8-6.652 5.234-.296.582-.758 2.36-1.028 3.951-.152.89-.155.874.09.459m-.085 4.263c.139 1.003.111.977.414.385 1.557-3.04 4.594-4.276 7.931-6.126 4.063-2.251 4.987-2.412 9.489-4.627 6.293-3.096 6.213-3.522 12.57-7.037 3.781-2.091 5.423-3.531 8.038-5.659 6.542-5.322 9.504-9.408 10.547-10.628.864-1.011.865-1.012 1.089-1.942.105-.435.185-.797.177-.805s-.21.264-.452.603c-.922 1.296-1.006 1.402-2.543 3.205-1.386 1.627-2.165 2.652-3.929 4.13-2.485 2.084-2.996 2.84-7.412 5.456-4.38 2.595-7.342 4.596-17.459 8.027-4.299 1.458-5.607 1.982-8.574 3.436-4.392 2.153-7.42 4.28-8.715 6.124-.415.591-1.13 1.728-1.259 2.004-.186.395-.152 1.729.088 3.454m1.472-9.812c.734-.916 2.474-2.24 4.706-3.582 3.11-1.869 5.421-2.851 10.538-4.48a74 74 0 0 1 2.88-.802c4.734-1.186 6.86-2.333 11.096-4.421 1.67-.823 1.839-.929 6.073-3.571 5.354-3.341 8.22-6.407 12.125-11.276.546-.681 1.487-1.623 2.041-2.188.388-2.568.374-2.473.161-2.133-.476.76-1.987 2.236-3.244 3.718l-2.55 3.017c-.749.901-3.959 4.148-4.737 4.792-2.124 1.758-5.703 4.057-7.881 5.063-3.92 1.81-6.092 3.125-9.144 3.63-1.695.28-1.602.251-2.103.674-1.889 1.594-3.196 1.838-6.27 1.171-.724-.157-.56-.188-1.974.375a38 38 0 0 0-3.371 1.571c-1.417.762-4.103 2.073-6.09 4.05-.705.702-.831.799-.831.639 0-.099.844-1.08 1.211-1.408 1.899-1.696 6.357-4.215 9.483-5.357a2 2 0 0 0 .304-.131c.043-.039-1.448-.464-1.986-.566-4.206-.797-7.418 2.505-10.32 10.612-.285.796-.29.818-.117.603m20.729-14.66c.854-.847.92-.979 1.025-2.03.027-.271.018-.269-.326.082-2.994 3.051-5.245 4.074-9.867 4.487-.977.087-1.07.011 2.155.852l.586-.074c2.365-.3 4.495-1.399 6.427-3.317m-5.565 3.678c.921.145 1.638.114 2.358-.099 1.463-.434 3.067-2.009 3.688-3.621.054-.14.068-.152-.451.371-1.439 1.45-3.361 2.528-5.424 3.042-.798.199-.803.208-.171.307m-2.264-1.547c3.004-.369 5.148-1.298 7.055-3.059 1.98-1.829 1.842-1.476 1.915-2.248.059-.623.087-.603-.336-.239-3.65 3.148-8.375 5.151-12.143 5.15-.865 0-.866 0-.567.132 1.274.564 1.506.579 4.076.264m7.931.148c.28-.058.847-.168 2.093-.567 2.664-.854 4.108-1.096 10.181-4.546 4.028-2.288 5.61-3.497 8.219-6.276 1.679-1.789 2.291-2.467 3.235-3.58 2.366-2.791 3.595-3.947 4.821-5.532.766-.99.225.735.912-2.55.11-.528.193-.966.185-.975 0 0-4.635 6.455-8.302 10.106-4.049 4.032-7.561 6.133-11.101 8.373-4.295 2.718-6.081 3.029-8.92 3.182-.314.773-.79 1.732-1.323 2.365m1.067-6.25c.056-.031.201-.721.201-.957 0-.075-.073-.026-.424.282-4.833 4.239-13.037 5.951-18.375 3.835-.253-.1-.466-.176-.474-.168-.066.066 1.751 1.225 2.461 1.571 1.432.696 1.853.813 3.139.874 7.227.342 13.09-5.224 13.472-5.437m-19.015 2.74c6.241 2.214 13.161.848 18.703-3.693l.582-.476.136-.76c.037-.18.027-.179-.383.036-1.782.937-5.743 2.109-8.581 2.539-3.86.585-7.387.441-11.535-.473-1.247-.275-1.751-.463-2.893-.959.894 1.222 2.524 3.273 3.971 3.786m19.416.742c-.038.094-.032.094.549.031 1.761-.191 3.916-.815 5.187-1.502 1.454-.786 6.636-4.057 8.016-5.06 8.068-5.865 11.657-11.971 14.567-15.41.454-1.76.815-2.865.594-2.452-.124.231-6.729 8.421-9.355 11.207a68.31 68.31 0 0 1-4.742 4.475c-1.588 1.329-2.056 1.634-5.819 3.797-3.148 1.81-5.906 2.755-8.049 2.758-.313 0-.569.006-.57.012-.023.57-.241 1.802-.378 2.144m-.679 63.462c.084.155 2.249 2.019 2.293 1.975.012-.012-.012-.15-.053-.306-.066-.252-.072-.517-.05-2.36.024-2.127.042-2.414.235-3.837.405-2.989 2.089-9.48 4.051-14.336 2.094-5.182 4.166-7.831 6.373-11.9 3.563-6.569 2.831-3.564 7.046-16.008.118-.35 1.149-3.438 1.098-3.438-.008 0-.09.136-.181.301a43 43 0 0 1-1.231 2.1l-7.759 12.287c-2.093 3.131-1.338 2.132-2.99 4.535-5.322 7.741-7.935 12.411-8.91 20.611-.401 3.395-.356 9.58.078 10.376m-3.909-4.221c1.086 1.29 1.577 1.881 2.679 3.03.455.474.833.855.841.847s-.024-.346-.072-.75c-.299-2.523-.246-6.856.117-9.599.782-5.899 2.029-9.985 6.121-16.243l1.735-2.712c6.442-9.413 9.803-15.367 11.721-18.241.676-1.013 1.559-2.641 2.125-3.542.159-.253.328-.718 1.001-2.762.9-2.731.893-2.704.468-1.969a57 57 0 0 1-1.009 1.628c-5.485 8.578-6.805 10.593-10.436 14.973l-4.968 6.162c-1.873 2.304-4.129 5.574-5.097 7.39-1.951 3.66-3.353 7.628-4.186 11.855-.483 2.444-1.3 7.391-1.04 9.933m-4.422-4.791c.331.583 3.749 4.022 4.054 4.333l.009-1.121c.027-3.155.855-8.618 1.782-11.748 1.691-5.715 3.561-9.951 8.989-16.589l3.753-4.685c3.778-4.539 4.532-5.639 7.522-10.217.931-1.425 1.362-1.985 2.237-3.384 3.636-5.812 3.56-5.46 4.086-7.741.076-.328.13-.605.12-.614-.02-.02-1.219 1.623-2.042 2.797-.928 1.324-1.434 1.975-3.259 4.197-7.661 9.327-12.619 16.431-15.641 20.22-4.425 5.548-8.647 13.465-10.577 19.834l-.555 1.831c-.392 1.287-.616 2.644-.478 2.887m-4.285-5.419c.126.27 2.894 3.864 3.976 5.1.383-3.773 2.699-9.342 4.359-12.726 4.2-8.562 4.764-8.237 16.535-23.956 3.597-4.803 7.562-9.26 9.457-11.967 2.794-3.992 2.836-3.507 3.218-6.173.041-.286.049-.294-.378.402-1.464 2.387-4.468 6.253-5.271 7.267-1.841 2.324-1.766 2.458-4.645 5.894-1.504 1.795-3.781 4.63-5.982 6.988l-8.817 9.313c-1.512 1.669-5.763 7.102-7.108 9.084a70 70 0 0 0-1.869 2.967c-.908 1.575-2.639 5.239-3.059 6.477-.408 1.198-.481 1.191-.416 1.33m-2.208-3.25c1.523 2.375 2.015 3.027 2.065 2.735.138-.821.833-2.495 2.055-4.945 2.095-4.204 3.2-5.832 8.258-12.168 4.941-6.19 10.063-10.379 15.051-16.618 1.73-2.164 2.053-2.329 5.456-6.761 1.291-1.682 4.327-5.457 6.375-8.727.752-1.2.667-1.001.847-1.987a14.49 14.49 0 0 0 .14-.837s-1.609 2.155-2.526 3.27c-2.476 3.013-4.118 5.745-8.664 10.293-3.06 3.061-3.527 4.337-13.865 12.904-.964.799-1.662 1.476-3.762 3.65-6.653 6.89-10.022 11.502-12.246 16.769-.314.741-.371.57.816 2.422m-1.233-2.092a11 11 0 0 0 .281-.662c1.576-3.899 3.32-6.62 7.307-11.401 1.744-2.091 6.648-7.189 8.07-8.39l8.201-7.06c1.71-1.495 5.131-5.214 6.002-6.095 2.727-2.758 4.392-4.676 6.46-7.44 2.951-3.945 5.614-6.859 5.391-7.471-.012-.034-1.037 1.065-1.516 1.625-.319.373-1.804 1.98-2.814 3.043-2.844 2.996-1.22 1.559-6.858 7.745-1.881 2.064-4.566 4.114-6.108 5.468-3.944 3.461-5.966 4.545-13.463 10.427-7.806 6.125-13.887 12.505-13.887 14.57.001.294 2.833 5.741 2.934 5.641m-4.504-9.429c.182.355.321.705.321.813 0 .088.694 1.899 1.044 2.581.751-2.222 4.353-6.162 6.167-7.833 3.096-2.852 4.332-3.899 8.351-7.075 6.336-5.006 5.432-4.007 9.377-7.077 2.421-1.884 3.517-2.935 5.18-4.293 3.373-2.755 4.268-3.932 5.893-5.693 2.537-2.751 2.927-3.565 5.543-6.299 2.989-3.124 2.081-2.239 3.734-4.028.411-.444.757-.854.769-.911.282-1.28.389-1.024-1.225.719l-.982 1.073c-1.796 1.991-5.928 6.112-7.67 7.65-2.053 1.811-3.201 2.679-3.828 3.159-2.313 1.769-4.151 3.491-6.43 5.158-6.155 4.503-6.836 5.672-13.887 9.277-4.444 2.272-6.078 3.282-8.756 5.415-2.217 1.765-3.087 2.664-3.736 3.861-.672 1.231-.642 1.993.135 3.503m-.888-2.551c.019-.021.081-.159.138-.307.604-1.56 1.53-2.641 3.884-4.537 2.78-2.24 4.678-3.432 8.627-5.421 7.245-3.649 7.946-4.857 14.415-9.574 2.109-1.538 3.904-3.217 6.385-5.117 6.112-4.68 13.569-13.02 14.133-13.88.089-.135.475-1.907.458-1.957-.013-.039-.812.901-1.359 1.601-2.609 3.33-6.423 6.986-11.736 11.251-1.938 1.556-3.667 2.712-5.983 4.002-6.951 3.871-8.07 5.18-17.415 9.3-1.029.454-2.69 1.287-4.421 2.218-3.703 1.992-6.535 3.204-8.103 6.053-.448.814-.467.891-.355 1.471.371 1.94 1.213 5.033 1.332 4.897m-.342 2.501c.271.031.31-.005.23-.214-.034-.09-.042-.089-.301.046s-.257.131.071.168m-1.775-.269c.86.202.925.201 1.34-.017.559-.295.534-.23.327-.851-.199-.594-.192-.587-.374-.394-.254.269-.995.726-1.55.956-.368.153-.361.161.257.306m-2.605-.772c.172.096 1.579.487 1.662.462.306-.092 1.612-.906 2.026-1.263.279-.24.273-.169.07-.843-.196-.65-.132-.633-.593-.164-.634.644-1.624 1.225-2.741 1.608-.304.104-.462.179-.424.2m-.519-.165c.477-.168 2.845-.912 3.796-2.207.186-.253.186-.211-.009-.968-.138-.535-.122-.525-.349-.208-1.106 1.543-3.142 2.232-4.957 2.774.712.332.785.352 1.519.609m-2.537-1.22c.566.378.442.38 1.682-.029 2.122-.7 3.121-1.295 3.985-2.373.423-.528.42-.516.31-1.045-.1-.478-.105-.487-.231-.345-.958 1.075-4.629 3.056-6.15 3.319-.223.039-.193.075.404.473m-.967-.701.478-.055c1.1-.126 3.999-1.45 6.269-3.6-.004-.022-.269-1.415-.286-1.43 0 0-4.145 3.456-6.643 4.285-.637.212-.578.17.182.8m-1.19-1.049c.289.273.213.265.678.073 1.428-.591 3.04-1.62 5.554-3.546 1.109-.849 1.351-1.07 1.323-1.203-.033-.159-.177-1.434-.213-1.434-.016 0-.369.296-.782.659-2.417 2.116-5.467 4.459-6.39 4.909-.484.235-.486.243-.17.542m-.502-.538c.23.23 1.902-1.007 6.173-4.562.903-.751 1.632-1.42 1.635-1.498.007-.216-.027-1.73.044-2.392.064-.59.093-.581-.383-.12-1.108 1.073-3.026 2.379-5.106 5.324-.429.608-1.713 2.275-2.058 2.673-.367.422-.398.481-.305.575m-.437-.468c1.029-1.234.793-.814 2.878-3.61 1.533-2.055 4.415-4.802 5.325-5.075a.8.8 0 0 0 .174-.065c0-.146.362-1.888.507-2.44l.191-.747c-.003.001-.197.187-.43.414-1.061 1.032-3.908 3.264-6.342 7.109-.354.559-2.19 3.326-2.638 4.003l.335.411m-.576-.787c.025.007.165-.191.313-.44.402-.68.574-.799 1.364-2.024 2.042-3.167 2.932-4.343 4.802-6.342.898-.96 2.295-2.116 2.967-2.456l.292-.147a84 84 0 0 1 1.164-3.381c.084-.218-.285.166-.922.683-3.65 2.961-6.439 6.248-8.852 10.437-.558.968-1.567 2.783-1.611 2.897-.028.071.394.747.483.773m-2.628-6.931c.104.779.093.771.374.284 1.008-1.748 2.319-3.267 3.85-5.242.684-.882 1.392-1.677 2.237-2.678 2.219-2.628 3.902-4.218 6.627-6.263 2.85-2.138 4.189-2.976 5.816-3.64 1.458-.595 1.489-.388.053.35q-3.898 2.002-7.822 5.329c-3.866 3.278-9.776 11.303-10.912 13.183.284 1.275.735 2.527.794 2.608.043.059.137-.1.548-.926.907-1.821 1.021-1.84 3.206-5.015a55 55 0 0 1 4.049-5.139c1.686-1.886 5.624-4.931 6.379-4.931.676 0-2.628 1.892-5.092 4.162-2.213 2.038-6.17 7.062-8.85 12.421.292.721.553 1.182.609 1.259s.08.043.272-.34c1.044-2.083 3.278-5.546 4.823-7.477 1.847-2.308 4.097-4.506 6.047-5.909.828-.595.789-.546 1.153-1.442 2.149-5.276 4.715-8.254 7.559-8.774.424-.078.468-.124.164-.175-.416-.07-1.169-.31-1.959-.626-.955-.382-.876-.372-1.401-.165-4.792 1.892-5.335 2.648-9.511 5.997-4.568 3.663-8.342 8.163-8.99 9.094-.24.346-.251 2.344-.023 4.055m.117-4.803c.495-.726 2.306-2.731 3.8-4.209 3.396-3.359 3.45-3.258 6.815-6.009 3.477-2.842 4.625-3.363 7.777-4.591-.261-.144-.511-.273-1.141-.682a9 9 0 0 0-.568-.354c-.129.021-1.287.539-1.983.886-2.847 1.422-5.614 3.503-9.913 7.457-1.799 1.654-3.981 3.879-4.117 4.198-.21.491-.827 3.535-.67 3.304m2.424-8.177c-.994 2.227-1.252 3.12-1.54 4.05 3.41-3.868 11.524-10.818 15.19-11.877.439-.127.284-.057-.636-.823-.453-.378-.455-.378-1.161-.142-3.223 1.074-6.495 3.187-10.441 6.742-.873.786-.799.679-1.412 2.05m3.117-6.426-.308.572c-.385.716-1.848 3.735-1.823 3.762.01.011.264-.223.564-.52 2.792-2.763 7.285-5.645 10.079-6.466l.619-.183c.082-.026-1.28-1.359-1.326-1.354-.017.002-.392.149-.834.327-2.589 1.04-4.676 2.168-6.489 3.506zm1.581-2.853c-1.361 2.334-1.346 2.231-.21 1.479 3.214-2.128 6.209-3.067 6.209-3.067.056-.034-.427-.578-.692-.946-.202-.281-.109-.284-1.01.039-3.18 1.143-3.676 1.43-4.297 2.495m.992-1.624c0 .015.055-.009.123-.054.8-.524 2.433-1.277 3.18-1.466.482-.122.487-.067-.082-.853a32 32 0 0 1-.636-.903c-.191-.295-.208-.294-.43.044-.077.118-2.155 3.122-2.155 3.232m3.437-3.53c.741 1.044.792 1.105 1.027 1.223 2.445 1.229 7.945 2.013 12.075 1.721 3.408-.241 8.206-1.332 11.531-3.007l.308-1.045c.034-.086-.115-.039-.917.293-2.746 1.134-8.011 1.946-11.208 1.727-2.763-.189-7.365-1.017-9.958-1.791-1.28-.383-3.368-1.159-4.153-1.546l-.554-.272c-.05-.026.852 1.292 1.849 2.697m-4.51-7.226a31.85 31.85 0 0 1 .307.614c.403.817 1.565 2.797 1.821 3.101.264.314 1.436.934 2.585 1.367 3.846 1.45 4.67 1.411 7.859 2.071 3.526.73 6.761.852 9.98.378 2.714-.399 4.955-.961 6.935-1.739.111-.043.362-.627.595-.992a2 2 0 0 0 .15-.253l-3.425.667c-2.128.368-6.159.553-8.341.384-3.458-.268-5.844-.709-9.011-1.662-2.963-.892-7.204-2.657-9.017-3.752-.475-.287-.502-.299-.438-.184m53.01-12.475c-.563.945-.97 1.576-2.384 4.739-.526 1.177-1.474 3.044-1.451 3.109.012.034.51-.384 1.888-1.585 4.28-3.731 7.074-8.276 8.236-13.402.252-1.111.292-1.13.561-2.604.113-.622.199-1.15.191-1.174s-.163.313-.345.751c-.308.742-.46 1.143-1.106 2.916-1.309 3.592-2.85 5.083-5.59 7.25m2.358-3.351c-.693.904-1.404 1.872-1.482 2.017-.23.428 1.589-1.503 2.259-2.397.42-.561 1.379-2.198 1.544-2.638.13-.344.001-.012-2.321 3.018m-4.76 5.734c-.945 1.125-2.428 2.666-3.341 3.471-3.303 2.911-7.114 5.432-8.905 6.406l-4.123 2.316c-.708.407-.122.353.994-.092 3.42-1.362 4.926-1.406 9.487-5.343.621-.535 2.767-2.658 3.233-3.197 1.256-1.453 1.019-1.051 1.943-2.465.399-.611.453-.604.229.03-.803 2.272-6.65 7.747-10.159 9.514-.905.456-1.451.665-3.449 1.323L-30.21 21c.02.02 1.351.247 1.378.252l1.127-.378c3.696-1.24 7.985-4.035 9.414-6.134.103-.152 1.367-1.839 1.733-2.168a1.4 1.4 0 0 0 .344-.466c1.611-3.641 2.082-4.238 1.506-3.553m-19.448 14.878c-.471.586-.478.565.216.656 1.819.241 3.851-.13 5.377-.98.734-.409 1.112-.633 1.114-.659s-1.211-.261-2.231-.429c-2.1-.345-3.389.061-4.476 1.412m17.32-10.088c-.067 0-.469.498-.58.719-.755 1.502-2.674 3.283-5.324 4.942-1.938 1.214-2.951 1.674-4.897 2.225-.24.068-.435.135-.435.15 0 .05 1.606.306 1.979.367l.652-.234c2.489-.894 5.921-3.276 6.949-4.822a54.79 54.79 0 0 0 1.6-3.179 1 1 0 0 0 .056-.168m-5.307 7.049a12.29 12.29 0 0 1-2.224 1.143c-.8.301-.775.285-.447.287 1.99.015 3.677-1.028 5.216-3.223.412-.587-.137.176-2.545 1.793m-2.974 2.304c-.716-.001-.98-.019-1.42-.1-.675-.124-.647-.126-.754.034-.828 1.237-4.882 2.231-7.011 1.72-.404-.097-.398-.1-.547.234-.692 1.549-.694 2.128-.005 2.066 4.839-.436 8.088-1.641 10.585-3.924.017-.016-.364-.029-.848-.03m-41.122-6.228c.675 1.826.947 2.051 4.14 3.43 6.894 2.977 12.29 4.16 18.509 4.057 2.722-.045 3.849-.166 7.137-.768a35 35 0 0 1 1.428-.244c.061 0 .225-.133.455-.368.7-.718 1.466-1.315 1.149-1.222-.222.065-1.718.214-3.405.34-3.419.255-9.329-.213-13.329-1.055-5.784-1.218-13.289-4.208-16.348-6.513-.648-.489-.643-.485-.643-.441.002.085.68 2.169.907 2.784m-1.999-7.693c.244 1.723.634 3.53.919 4.26.177.454 2.416 1.93 4.393 2.895 8.174 3.991 18.803 6.113 27.078 5.407 2.004-.171 2.718-.177 3.16-.498 1-.726 1.496-.957 1.198-.915-2.851.404-5.742.386-10.717-.065-4.744-.43-7.944-1.266-11.163-2.566-4.487-1.812-11.503-5.918-14.456-9.044-.618-.654-.585-.695-.412.526m-.22-1.936c.205 1.892 10.021 8.259 16.205 10.512 3.524 1.284 6.243 1.869 10.203 2.196 5.221.431 7.298.453 10.572.114.934-.097.586-.064 2.242-1.011.38-.217.668-.395.639-.395a4 4 0 0 0-.36.065c-1.473.31-5.501.367-8.182.115-5.787-.543-9.13-.593-14.602-3.016-4.411-1.954-7.578-4.047-11.051-7.303-.855-.802-3.809-3.33-5.153-5.054a21 21 0 0 0-.561-.703c-.118-.001-.084 3.272.048 4.48m.576-9.159c-.463 2.035-.579 3.487-.625 3.903-.024.22-.011.24.84 1.288 1.353 1.666 4.019 4.004 5.03 4.931 3.691 3.384 6.83 5.461 10.962 7.255 4.184 1.817 6.451 2.317 12.771 2.818 6.421.509 10.427.376 11.811-.392 1.11-.616 2.907-1.785 2.635-1.713-3.379.889-8.824 1.106-13 .518-4.042-.569-7.675-1.529-10.456-2.763-3.721-1.651-6.02-2.928-8.911-4.949-6.04-4.223-8.854-7.05-10.724-10.776-.265-.529-.241-.52-.333-.12m.986-3.623c-.213.628-.785 2.738-.785 2.893 0 .116.713 1.518 1.115 2.192 1.889 3.166 5.1 6.08 11.181 10.147 2.81 1.879 7.273 4.079 10.165 5.01 5.704 1.836 12.881 2.535 18.084 1.762 2.406-.357 3.106-.527 3.591-.872l1.662-1.209c-.005-.005-.39.069-.856.164-2.184.446-3.564.581-5.96.581-4.72.001-7.472-.343-13.083-1.633-5.989-1.377-11.552-4.565-17.193-9.849-4.89-4.582-6.901-6.894-7.736-8.898-.153-.364-.157-.371-.185-.288m1.633-4.014c-.074-.025-.783 1.517-1.5 3.594.973 2.202 1.634 3.296 5.289 6.883 5.611 5.506 8.532 7.71 13.24 9.99 2.861 1.385 4.428 1.879 9.141 2.879 5.243 1.113 10.935 1.525 16.162.575 1.539-.28 1.45-.236 2.918-1.428.765-.621.797-.665.333-.463-1.251.545-3.528 1.005-6.204 1.253-1.141.106-4.122.076-5.247-.052-2.945-.336-3.972-.373-8.886-2.006-4.036-1.341-5.293-1.959-11.364-5.592-3.252-1.946-4.464-2.854-6.522-4.889-3.176-3.139-4.601-5.137-6.604-9.259-.396-.809-.735-1.478-.756-1.485m2.74-4.363c-1.476 1.912-2.612 3.906-2.612 4.109 0 .238 2.01 4.041 2.838 5.369.907 1.456 2.293 3.093 4.416 5.216 2.556 2.556 3.703 3.373 9.519 6.774 4.271 2.498 7.375 3.756 12.787 5.183 1.97.519 6.561.933 8.752.788 2.66-.176 5.009-.57 6.609-1.11 1.303-.44 1.318-.446 1.7-.782.414-.363.414-.361.014-.278-.623.13-1.053.16-4.104.294a35 35 0 0 1-5.995-.225c-4.077-.512-10.704-2.414-14.058-4.037-4.006-1.937-7.223-4.266-11.605-8.401-1.65-1.557-4.507-4.878-5.607-6.517-1.217-1.813-2.184-3.737-2.481-4.932-.123-.499-.149-1.091-.173-1.451m.276-.332.03.698c.124 2.864 3.886 8.451 8.625 12.808 7.277 6.689 11.716 8.789 20.07 10.87 3.162.788 4.894 1.067 7.77 1.253 1.117.072 5.715-.01 7.887-.351l1.132-1.156c.023-.026-.054-.017-.781.094-.773.117-2.896.183-3.996.123-4.888-.264-5.256-.187-8.038-.614-9.296-1.425-13.611-3.486-20.22-9.659-2.409-2.25-4.274-4.674-6.009-7.812-.741-1.341-1.977-4.7-2.437-6.625-.235-.985-.379-2.84-.255-3.305s-1.781 1.305-3.778 3.676m7.118-6.076c-.099 0-1.578.907-3.096 2.029.059 2.829-.021 2.845 1.142 6.276 1.955 5.768 5.026 9.916 10.75 14.517 4.378 3.519 8.44 5.254 14.933 6.376 4.799.83 5.776.674 9.444.926 1.23.085 3.831.059 4.68-.045.278-.034.542-.053.587-.041.106.028.208-.13.676-.631.409-.437.621-.679.621-.707 0-.013-.146.013-.324.058-1.414.358-5.221.694-7.424.655-3.944-.069-8.335-.98-12.704-2.637C-42.527 3.514-46.347.307-51.013-6.685c-2.608-3.908-3.918-8.124-4.062-13.072-.015-.534-.039-.971-.054-.971m3.122-1.362c-3.239 1.287-3.132.738-2.567 4.813.801 5.774 2.317 8.498 5.662 13.16C-45.389.794-40.438 4.32-34.28 6.303c5.674 1.828 9.755 2.422 14.133 2.058.984-.082 3.842-.376 4.996-.668.704-.894.749-.884.206-.663-2.9 1.184-8.816 1.545-12.706.774-5.079-1.006-9.936-3.643-14.8-8.035-3.126-2.823-6.128-7.594-7.504-11.924-.818-2.575-1.347-3.602-1.692-5.411-.348-1.824-.404-2.88-.212-4 .107-.63.108-.626-.148-.524m1.239-.509c-.738.316-.748.322-.748.459-.001.702-.426 1.271.091 4.165.219 1.23.292 1.495.877 3.214.662 1.943 1.359 4.313 2.797 6.914 1.926 3.484 3.453 5.588 5.243 7.224 5.972 5.456 11.802 8.18 18.231 8.52 3.405.18 7.272-.296 9.545-1.174l.458-.177c1.125-1.357 1.087-1.267.959-1.232-1.814.488-2.118.751-4.823 1.087l-1.533.2c-1.438.228-4.751.47-5.835.427-1.704-.068-4.349-.647-6.06-1.327-3.725-1.481-6.063-3.156-8.811-6.315-3.49-4.01-4.294-5.172-5.54-8.006-1.992-4.529-2.267-5.378-2.961-9.14-.34-1.842-.557-4.849-.393-5.436.077-.274-.055-.02-1.497.597m2.819-1.667a.4.4 0 0 0 .037-.121s-.486.456-.863.738c-.298.222-.319.249-.346.447-.121.886.13 3.601.533 5.757.63 3.37.832 3.979 2.884 8.707 1.175 2.707 1.823 3.65 5.304 7.725 2.297 2.687 4.509 4.448 7.105 5.654 2.524 1.172 3.756 1.551 6.605 2.029 1.202.202 5.018.019 7.055-.338.135-.024.788-.112 1.451-.197 2.384-.305 5.365-1.121 5.624-1.541.015-.025.103-.066.193-.092a.45.45 0 0 0 .264-.202c.217-.342.027-.014-1.897.341-.246.045-.319.075-.301.123s-.014.058-.165.038a1.7 1.7 0 0 0-.473.04c-3.648.846-8.348.802-12.936-.12-4.203-.845-6.889-1.953-11.897-7.409-1.607-1.751-3.399-4.301-4.378-6.229-2.363-4.655-3.564-7.988-3.95-10.962-.165-1.294-.08-3.787.151-4.388m1.466.733c-.115-.115-.817-.832-.849-.78-.128.208-.237 2.726-.165 3.802.114 1.686.762 4.13 1.715 6.472 2.602 6.393 5.228 10.18 9.917 14.298 1.651 1.45 4.493 3.147 5.235 3.126.032-.001-.126-.106-.881-.59-1.331-.853-1.551-1.014-2.628-1.927-2.634-2.234-5.152-5.137-6.675-7.696-1.847-3.104-2.545-4.801-4.58-11.141-1.025-3.196-1.045-4.663-1.089-5.564m.177.15c.498 2.384-.052 1.536 2.193 8.37 1.322 4.026 2.183 5.911 4.027 8.819 1.4 2.209 4.498 5.52 7.079 7.568 3.279 2.601 4.703 2.767 8.543 3.263.18.023.351.041.38.04.077-.003-.311-.198-.704-.354-1.33-.528-3.421-2.157-4.818-3.143-4.286-3.024-6.406-5.053-8.866-8.482-1.93-2.691-2.798-4.343-3.972-7.562-3.578-9.808-.754-5.872-3.862-8.519m4.088 1.986a17.78 17.78 0 0 1-1.857-.517c-.318-.129-.354-.133-.324-.03a15.51 15.51 0 0 1 .12.502c.471 2.058 2.141 6.924 3.19 9.292.919 2.074 2.78 4.863 4.749 7.118 2.756 3.156 4.539 4.241 7.329 6.306 3.289 2.434 3.608 2.45 5.428 3.449 1.947.151 1.886.136 2.315.113-3.138-1.621-6.82-4.463-9.02-6.432-3.876-3.47-6.041-6.349-8.56-11.384-1.584-3.166-2.524-5.612-2.935-7.639-.157-.781-.121-.717-.435-.778m1.441.222-.77-.113c-.132-.029-.14-.076.172 1.086.574 2.143 1.189 3.628 3.039 7.333 2.673 5.356 4.651 7.905 9.148 11.791a58.39 58.39 0 0 0 8.596 5.975c.732-.028 1.973-.063 2.813-.17l.781-.093c.036-.001-.224-.099-.58-.217-2.428-.804-3.331-1.677-5.894-3.132-3.614-2.05-5.301-4.231-7.054-6.116-3.584-3.852-4.656-5.44-7.07-10.471a41 41 0 0 1-2.064-5.133c-.222-.677-.112-.604-1.117-.74m4.282 1.043c-.146-.111-1.639-.558-2.286-.685a14 14 0 0 0-.746-.134c-.222 0 1.196 3.467 2.544 6.221 2.815 5.747 3.821 6.415 7.468 10.524 3.704 4.174 5.499 4.736 7.224 5.82 4.006 2.516 4.664 2.304 5.685 2.785.194.092.275.107.447.082.454-.065.455-.06-.066-.335-2.038-1.073-3.843-2.206-5.156-3.234-4.602-3.606-6.435-5.327-8.675-8.145-1.734-2.182-2.319-3.084-3.758-5.792-1.551-2.92-2.266-4.799-2.565-6.743-.027-.179-.077-.334-.116-.364m1.204.518c-.84-.414-.881-.423-.84-.187a25.04 25.04 0 0 0 .854 3.065c.582 1.533 2.656 5.485 3.572 6.809 4.037 5.833 7.419 8.07 10.039 10.274 1.927 1.621 4.243 2.911 6.372 3.985.129-.028 1.386-.286 1.342-.322a2 2 0 0 0-.235-.111c-2.135-.888-4.255-2.186-6.162-3.775-4.748-3.954-8.979-9.169-11.156-13.752-1.059-2.229-.885-1.917-1.862-4.743-.086-.252-.649-.615-1.924-1.243m2.127 1.277.563 1.554c2.016 5.896 7.413 12.889 13.503 17.497 1.925 1.457 5.634 3.452 5.908 3.178.016-.016-.227-.178-.54-.36-4.144-2.414-9.553-7.428-11.913-11.043-1.383-2.119-2.909-5.518-3.394-7.557-.074-.314-4.127-3.48-4.127-3.269m8.033 6.007a33 33 0 0 1-2.183-1.448c-.629-.462-1.59-1.279-1.543-1.165a211.83 211.83 0 0 1 .52 1.374c1.92 5.1 4.349 8.478 8.949 12.447 2.618 2.259 6.773 5.253 6.764 4.874 0-.018-.136-.114-.301-.212-1.437-.855-3.199-2.346-4.716-3.992-.598-.649-3.257-3.911-4.216-5.173-1.157-1.523-2.44-4.064-3.088-6.117zm5.756.364-.319.147c-.568.262-1.389.468-1.866.468-.323 0-.121.055.224 1.016q2.307 6.424 8.021 11.24c1.917 1.617 2.207 1.899 1.95 1.899-.28 0-3.003-2.229-4.219-3.452-2.488-2.504-5.104-6.79-6.193-10.145-.178-.547-.172-.541-.55-.575q-.964-.087-2.186-.648a3 3 0 0 0-.329-.139c-.124 0 1.121 2.95 1.683 3.987.933 1.724 2.351 3.383 2.94 4.137 3.114 3.982 4.818 5.416 7.993 7.685.14-.057.534-.226.654-.226.108 0 .704-.76.652-.832a5 5 0 0 0-.319-.283c-1.546-1.301-5.018-5.714-6.496-8.258-.985-1.695-1.468-3.367-1.61-5.57zm2.487-2.113c-.762.791-1.572 1.47-1.842 1.667-.203.147-.368.288-.368.313 0 .63.231 2.297.42 3.033.674 2.622 3.625 6.972 7.212 10.632.867.884.744.858 1.196.254l.366-.489c-2.212-2.498-2.661-3.764-4.627-7.878-1.428-2.99-2.277-5.565-2.292-6.958-.004-.271-.04-.438-.065-.574m2.531-2.385c-.963.515-1.773 1.494-2.209 2.005.097 2.647.185 3.66 3.56 10.387 1.23 2.452 2.254 4.083 3.217 5.126.047.05.637-.654.846-1.009.022-.038-.042-.139-.185-.29-.44-.465-1.644-2.17-2.23-3.157-1.936-3.259-3.169-9.019-2.737-12.788.054-.48.078-.456-.262-.274m.55-.258c.006 2.172-.215 7.738 2.588 12.717.402.713 2.403 3.72 2.48 3.725.031.002.405-.508.575-.785l.142-.23c-2.184-3.043-3.882-8.505-4.107-11.172-.117-1.394-.138-1.741-.138-2.369 0-.6.098-1.86.161-2.063.041-.132-.882-.118-1.701.177m8.414 3.518c-.585-.751-1.219-1.207-1.29-.927-.851 3.378-1.059 6.25-.648 8.964.126.837.217 1.718.181 1.754-.057.057-.163-.112-.268-.428-.453-1.371-.555-5.006-.201-7.13.362-2.173.845-3.575.845-3.575 0-.081-1.629-1.315-1.735-1.315s-.443 1.478-.672 2.969c-.586 3.827-.213 6.44 1.362 9.537.369.726.418.876.25.772-.502-.31-1.492-2.667-1.856-4.414-.261-1.256-.361-3.282-.215-4.354.132-.968.558-3.728.941-4.645-.941-.596-2.045-.983-3.233-.98-.046 3.895-.045 5.876 1.899 11.094.411 1.104 1.94 4.163 2.144 4.289.073.045.534-.804.739-1.162.308-.541.912-1.94.911-2.111a2 2 0 0 0-.043-.3c-.521-2.239.781-6.81 1.254-7.627-.091-.096-.242-.253-.365-.411m.715.949c-.215-.363-.194-.404-.618 1.261-.518 2.035-1.013 6.063-.681 5.537.194-.307 1.405-3.741 1.929-5.809-.167-.256-.452-.687-.63-.989m4.801-6.162c-1.849 1.814-2.717 4.338-3.213 6.844-.16.807-.723 2.742-1.205 4.136-.265.767-.291.874-.291 1.205 0 2.536-1.259 7.618-2.543 10.265-1.819 3.75-3.953 6.358-8.174 9.985-1.548 1.331-1.031.368-1.943 2.189-2.052 4.103-3.724 5.792-6.287 6.354-.423.093-3.507 4.108-11.341 4.475-.339.016-.624.042-.633.057-.036.058-.35 2.415-.325 2.44.073.073 2.129-.248 3.025-.474 1.962-.493 3.348-1.137 6.72-3.125 3-1.768 3.783-2.367 7.084-5.422 2.278-2.108 4.985-5.125 7.664-8.543 1.846-2.355 4.018-4.924 4.162-4.924.046 0 .089-.042.101-.1s.153-.543.314-1.083C-5.013-.009-5.035-.854-2.967-6.507c1.314-3.59 1.647-3.601 3.672-9.154.446-1.222 1.134-2.912 1.891-4.354-1.127.044-1.654.794-2.473 1.598M-5.342 2.92q.004.08.027.027c.031-.078-.032-.142-.027-.027m.725-2.437c.691-2.191 2.794-7.014 4.215-9.668 1.133-2.117 1.526-2.928 2.127-4.398.859-2.103 2.092-4.49 2.75-5.327.231-.294.236-.306.159-.391-.133-.147-.771-.535-1.019-.621-.497-.171-.586-.166-.647.037a9 9 0 0 1-.28.684 74 74 0 0 0-1.695 4.155C-1.426-8.485-1.29-10.224-3.854-2.331-4.638.082-5.179 2.264-4.617.483M6.676-17.696c9.985-28.253 26.345-55.661 50.309-81.5h-3.189c-25.128 27-42.401 52.743-52.774 78.664 2.915-1.03 4.906-.15 5.654 2.836m-1.518-.916c.007-.021-.034-.114-.091-.206-.135-.219-.14-.217-.32.145-.19.382-1.422 2.406-2.65 5.411-.558 1.364-.814 1.894-1.919 3.966C-2.423-4.422-4.495.838-5.005 3.854c-.77 4.553-.751 5.642-1.79 10.359-1.296 5.883-1.47 8.309-2.791 14.463-1.263 5.883-1.197 7.558-3.083 13.2-1.799 5.382-3.193 10.347-4.195 13.351-2.129 6.383-2.48 6.882-4.877 11.61-1.343 2.649-4.599 9.859-4.633 9.932-.302.645-1.114 2.114-1.558 3.106-2.568 5.736-2.479 5.878-3.417 8.596-.543 1.573-1.194 4.511-1.324 5.975-.076.852-.267 3.096-.267 4.137.333.172.302.217.56-.244 1.115-1.994 2.321-4.83 3.199-7.523 1.414-4.337 1.457-4.337 1.998-6.417.757-2.91 1.815-5.605 4.546-11.578 1.029-2.25 1.952-4.638 3.048-7.881.741-2.194.988-2.53 2.705-7.435l3.032-8.328c1.812-5.956 1.318-5.364 3.483-13.039.187-.663.368-1.397.401-1.63.137-.958.134-.267.335-1.147 1.574-6.898 1.187-4.695 3.129-14.638l1.272-6.787c.059-.643.125-.96.199-.96.019 0 .048-.085.065-.19a53.99 53.99 0 0 1 1.335-5.704C-1.435-1.923.158-5.854 2.746-10.658c.292-.543 2.405-4.574 2.715-4.577.316-.006-.413-3.042-.303-3.377m.3 4.281c-.005-.25-.05-.348-.114-.246-.223.358-.69 1.21-1.432 2.617C2.972-10.179.656-6.002-1.294-.567a232.25 232.25 0 0 0-2.193 6.72c-.283.959-.776 3.277-1.168 5.493-.299 1.689-.294.646.247 5.559.808 7.343 3.031 15.517 6.368 22.389 1.825 3.759 5.533 10.118 7.79 13.359 1.898 2.726.219.47 4.692 6.74l5.209 7.13a48 48 0 0 0 1.581 2.016c.173.205.189.191.395-.338.604-1.549.907-2.71 1.114-4.262.137-1.029.184-.863-.563-2.006-2.985-4.565-7.283-8.115-13.125-15.802C3.506 39.132-.007 32.009-.985 28.793c-1.689-5.552-2.678-13.169-2.392-18.434.069-1.279.057-2.89.107-3.033s.114-.081.114.1c0 .212.089.225.089.111 0-.187.801-4.401 1.899-7.233C-.11-2.43-.359-3.061 1.409-6.133a58.98 58.98 0 0 0 1.988-3.745c1.203-2.415 2.071-3.932 2.061-4.453M4.309-8.346C2.829-5.368 2.003-2.56 2.042-2.315A27.54 27.54 0 0 0 2.51-.418c.022.038.048-.066.067-.266.106-1.098.913-4.362 1.351-5.464.463-1.167 1.187-2.398 2.145-3.65.108-.141.19-.256.183-.256-.088.007-1.886 1.585-1.947 1.708m3.38-2.793c-.849.606-1.167.871-1.285 1.069-1.741 2.933-2.029 2.937-2.923 6.355-.762 2.914-.86 3.684-.568 4.432.219.56.359.706.359.372 0-1.447 1.775-8.943 4.504-12.082.478-.55.495-.561-.087-.146m4.014-2.087c-.197.002-1.382.482-2 .81-1.307.695-.989.459-2.263 2.337-1.118 1.65-1.837 3.302-2.788 6.409-.44 1.438-1.231 4.941-1.136 5.036.013.013.702.277.723.278.003 0 .02-.115.037-.257.409-3.34 4.171-10.805 7.202-14.289.155-.178.256-.324.225-.324m3.127-.228c-.046-.029-1.047-.037-1.376-.011-.361.028-1.092.111-1.19.134-.24.058-4.096 4.481-6.982 12.206-.35.936-.873 2.792-.8 2.837.121.075.834-1.018 1.94-2.971.796-1.406 1.831-3.029 4.243-6.653 1.686-2.534 2.193-3.213 3.563-4.778.354-.405.625-.749.602-.764m1.591.121c-.414-.076-.758-.1-1.025-.124-2.069 2.13-4.014 4.964-5.591 7.487-.876 1.401-1.685 2.507-2.848 4.577C5.865.55 5.555 1.05 5.146 1.535c-.299.353-.035.553.426.322C9.548-.139 15.626-6.671 17.274-12.556l.14-.497c.023-.077-.151-.126-.993-.28m3.373.994a21 21 0 0 0-1.266-.464c-.728-.235-.734-.235-.769-.077-.494 2.241-2.66 6.209-4.746 8.696C10.626-1.339 8.222.777 6.131 1.873c-.313.165-.295.202.119.244.397.041 1.404-.23 2.671-.719 4.816-1.857 9.983-7.559 11.652-12.28a17.21 17.21 0 0 1 .271-.727c.122-.27.192-.222-1.05-.73m2.925 1.423c-1.668-.896-1.521-.855-1.562-.647-.322 1.625-2.15 4.872-3.889 6.907-3.15 3.685-6.414 5.991-9.653 6.817-.577.147-.386.18 1.284.223 2.734.071 3.792-.273 6.743-2.193 2.454-1.596 5.823-4.87 9.02-10.162a31 31 0 0 1-1.943-.945m2.506 1.151a10 10 0 0 0-.307-.112c-.006 0-.089.153-.185.34-1.457 2.838-5.048 7.084-7.818 9.245a20.89 20.89 0 0 1-3.653 2.208c-.573.255-.692.317-.538.285a27.34 27.34 0 0 1 .529-.088c6.815-1.085 12.85-5.038 16.121-10.56.35-.591.45-.729.559-.89-2.763.015-3.424.055-4.708-.428m9.418.567a4 4 0 0 0-.458-.084c-.927-.134-4.032-.118-4.032.021-.003.933-3.104 4.793-5.358 6.669C21.3.318 16.351 2.33 11.846 2.673a14 14 0 0 0-1.247.163c-1.111.21-.183-.031-1.155-.031-1.904 0-4.399-.404-5.675-.918a4 4 0 0 0-.413-.154c-.039 0 .396.98.469 1.058.35.369 4.338 1.37 6.536 1.64 8.059.99 16.925-2.777 21.735-9.237 1.196-1.605 2.715-4.225 2.547-4.392m.914.193c-.54-.143-.581-.143-.581.011 0 .148-.434 1.076-.846 1.808C29.327 1.345 18.927 6.218 9.1 4.542c-1.892-.323-3.771-.793-4.618-1.155-.487-.209-.506-.204-.358.078.62 1.175 9.06 5.727 18.773 2.451 4.954-1.671 7.47-3.314 11.97-7.818 3.058-3.061 3.982-4.122 4.523-5.194l.139-.276a17.2 17.2 0 0 0-3.972-1.633m5.487 2.576c-.968-.646-1.187-.772-1.236-.711-.334.416.045.992-5.874 6.722-3.965 3.838-8.442 6.275-13.626 7.415C15.303 8.098 8.335 6.983 4.88 4.528a6 6 0 0 0-.264-.181c-.062-.038.287.641.449.874 1.198 1.722 7.953 4.104 12.408 4.376 5.265.321 12.555-2.466 18.04-6.898 1.337-1.081 3.836-3.337 4.726-4.268.836-.875 2.508-2.735 2.83-3.149.109-.141-.711-.833-2.025-1.711m5.555 5.444c-1.058-1.36-1.928-2.375-2.621-3.054-.641-.629-.642-.629-.761-.426-.642 1.086-2.562 3.147-4.735 5.081-4.523 4.025-7.646 6.018-12.056 7.693-4.343 1.649-7.842 2.054-11.49 1.33-4.086-.812-7.09-1.935-9.118-3.411-.156-.113-.29-.199-.298-.19-.062.058.842 1.492 1.022 1.622 8.782 6.338 24.35 4.79 34.864-3.466.47-.369 3.242-2.579 5.163-4.403.397-.377.395-.306.03-.776m1.963 2.78C47.025-.48 47.136-.364 47.004-.162c-.285.434-3.243 2.905-3.627 3.233C32.669 12.228 17.134 14.596 7.426 8.55c-.728-.453-.714-.46-.314.146 1.97 2.979 9.248 4.708 17.304 4.111a64.37 64.37 0 0 0 15.825-3.239c5.625-1.932 8.078-3.595 10.463-3.767.265-.019.492-.045.504-.057.047-.047-1.905-2.852-2.646-3.949m3.664 5.486-.791-1.261c-1.116.023-2.091.127-5.474 1.619-5.389 2.378-11.393 4.175-16.209 4.851-9.875 1.386-16.928.681-21.223-2.122a6 6 0 0 0-.46-.285c-.03 0 .769 1.034.788 1.059 1.266.682 1.317.72 2.05.971 4.253 1.457 10.385 1.941 16.122 1.274l9.69-1.049c6.826-.556 4.731-.594 11.498-.896 2.905-.13 4.798.021 6.494.516.084.025.161.037.171.027.029-.031-2.186-3.955-2.656-4.704m5.053 8.776-1.89-3.29c-.184-.314-.28-.433-.382-.475-.3-.123-2.32-.482-3.107-.553-1.41-.127-2.168-.058-3.595.016-8.058.419-3.463.274-13.396 1.073-2.204.177-2.528.348-8.685 1.023-6.739.739-14.095-.606-16.349-1.741-.384-.194-.374-.172.239.511.523.583.537.592 1.543.993 2.778 1.109 7.827 1.7 11.977 1.403 8.572-.614 14.735-2.26 26.278.083 2.476.503 6.126 1.507 7.573 2.083.586.235.603.327-.206-1.126m3.226 5.54c-.334-.485-1.007-1.605-1.727-2.873a19 19 0 0 0-.571-.968c-.228-.267-4.73-1.591-7.245-2.132-12.046-2.587-17.572-.975-26.703-.241-4.31.347-9.926-.262-12.466-1.351-.485-.208-.524-.22-.416-.131.844.703 4.676 1.881 7.39 2.273 3.237.466 4.294.497 10.102.292 5.477-.193 18.149 1.326 23.277 2.719 4.676 1.27 6.254 1.789 8.053 2.647.352.168.63.278.617.244a6 6 0 0 0-.311-.479m4.143 5.566c-.458-.532-1.276-1.587-2.181-2.813-1.263-1.712-1.134-1.577-1.828-1.915-1.605-.784-3.261-1.379-5.836-2.098-3.801-1.061-4.703-1.27-7.837-1.81-2.44-.421-3.916-.649-5.202-.805a304.04 304.04 0 0 0-5.961-.603c-2.006-.148-4.291-.399-7.77-.245-4.539.201-6.362.13-9.734-.381-1.841-.279-3.857-.824-5.403-1.462-1.082-.446-.723-.198.871.603 4.407 2.215 6.65 2.905 11.855 3.645 7.243 1.031 10.997.153 17.593.812 7.624.762 15.809 3.485 21.032 7 .744.5.886.635.401.072m6.923 5.814c-1.567-.889-3.278-2.177-4.935-3.711-1.211-1.122-2.73-2.117-5.537-3.629-4.114-2.215-10.92-4.349-16.834-5.034-2.756-.319-3.593-.355-8.573-.365-6.319-.012-7.403-.087-11.788-.806-3.751-.615-6.524-1.501-9.377-2.997-1.297-.68-1.428-.806-.692-.164 3.746 3.27 6.403 5.113 17.596 5.375 3.049.071 9.567.365 12.523.786 1.862.265 5.78 1.086 7.368 1.543 4.357 1.255 9.282 3.811 11.552 5.993l.458.441c3.082.711 5.014 1.135 7.34 2.296.405.202 1.42.834 1.656 1.031.124.104.134.105.19.03.124-.171.086-.203-.947-.789"/></symbol><defs><path id="a" d="M0 0h2560v1600H0z"/></defs><clipPath id="b"><use href="#a"/></clipPath><g clip-path="url(#b)"><use href="#c" width="146.837" height="200" x="-73.419" y="-100" transform="scale(.8473 -.8473) rotate(-33.339 951.965 -3849)"/><use href="#c" width="146.837" height="200" x="-73.419" y="-100" transform="matrix(-.7261 .3169 .3169 .7261 1417.334 1137.154)"/><use href="#c" width="146.837" height="200" x="-73.419" y="-100" transform="scale(1.0403 -1.0403) rotate(86.064 1678.424 341.612)"/><use href="#c" width="146.837" height="200" x="-73.419" y="-100" transform="scale(.7102 -.7102) rotate(59.141 2997.517 732.16)"/><use href="#c" width="146.837" height="200" x="-73.419" y="-100" transform="matrix(-.7608 -.4061 -.4061 .7608 2128.3 1161.168)"/><use href="#c" width="146.837" height="200" x="-73.419" y="-100" transform="scale(-.9682 .9682) rotate(-48.454 917.373 2644.054)"/><use href="#c" width="146.837" height="200" x="-73.419" y="-100" transform="matrix(.9285 .275 .275 -.9285 129.98 693.614)"/><use href="#c" width="146.837" height="200" x="-73.419" y="-100" transform="matrix(-1.2008 -.0022 -.0022 1.2008 325.046 815.25)"/><use href="#c" width="146.837" height="200" x="-73.419" y="-100" transform="matrix(-.0696 .6878 .6878 .0696 1708.497 47.236)"/><use href="#c" width="146.837" height="200" x="-73.419" y="-100" transform="matrix(-1.3419 -.5348 -.5348 1.3419 1976.19 223.856)"/><use href="#c" width="146.837" height="200" x="-73.419" y="-100" transform="scale(.985 -.985) rotate(68.402 884.946 640.843)"/><use href="#c" width="146.837" height="200" x="-73.419" y="-100" transform="matrix(-.7437 -.7852 -.7852 .7437 2380.41 1476.869)"/><use href="#c" width="146.837" height="200" x="-73.419" y="-100" transform="matrix(-.9539 .0645 .0645 .9539 2506.137 604.259)"/><use href="#c" width="146.837" height="200" x="-73.419" y="-100" transform="matrix(-.5558 .6523 .6523 .5558 1949.984 899.182)"/><use href="#c" width="146.837" height="200" x="-73.419" y="-100" transform="matrix(.0046 1.1321 1.1321 -.0046 2011.553 448.995)"/><use href="#c" width="146.837" height="200" x="-73.419" y="-100" transform="scale(-1.5 1.5) rotate(-.691 50740.097 100440.495)"/><use href="#c" width="146.837" height="200" x="-73.419" y="-100" transform="matrix(.2026 .7287 .7287 -.2026 958.679 1107.388)"/><use href="#c" width="146.837" height="200" x="-73.419" y="-100" transform="matrix(.9355 .4976 .4976 -.9355 1366.409 73.264)"/><use href="#c" width="146.837" height="200" x="-73.419" y="-100" transform="matrix(.4979 .918 .918 -.4979 607.781 290.757)"/><use href="#c" width="146.837" height="200" x="-73.419" y="-100" transform="matrix(-1.1619 -.9023 -.9023 1.1619 1134.434 833.88)"/><use href="#c" width="146.837" height="200" x="-73.419" y="-100" transform="matrix(.5327 .4796 .4796 -.5327 1356.304 1025.323)"/><use href="#c" width="146.837" height="200" x="-73.419" y="-100" transform="matrix(-1.3272 .2898 .2898 1.3272 475.45 1131.583)"/><use href="#c" width="146.837" height="200" x="-73.419" y="-100" transform="matrix(-.6641 .738 .738 .6641 220.1 29.991)"/><use href="#c" width="146.837" height="200" x="-73.419" y="-100" transform="matrix(-.1786 .7307 .7307 .1786 2244.481 1546.137)"/><use href="#c" width="146.837" height="200" x="-73.419" y="-100" transform="scale(-.7155 .7155) rotate(-75.13 -15.532 1461.22)"/><use href="#c" width="146.837" height="200" x="-73.419" y="-100" transform="matrix(-1.0044 .4522 .4522 1.0044 50.055 897.243)"/><use href="#c" width="146.837" height="200" x="-73.419" y="-100" transform="matrix(-1.2045 .8237 .8237 1.2045 803.612 361.024)"/><use href="#c" width="146.837" height="200" x="-73.419" y="-100" transform="matrix(1.1415 -.2465 -.2465 -1.1415 91.64 105.036)"/><use href="#c" width="146.837" height="200" x="-73.419" y="-100" transform="matrix(1.26 -.7058 -.7058 -1.26 567.773 776.16)"/><use href="#c" width="146.837" height="200" x="-73.419" y="-100" transform="matrix(-1.0828 -.2847 -.2847 1.0828 2496.333 843.182)"/><use href="#c" width="146.837" height="200" x="-73.419" y="-100" transform="matrix(-.6055 .7947 .7947 .6055 598.81 585.103)"/><use href="#c" width="146.837" height="200" x="-73.419" y="-100" transform="matrix(.836 .2239 .2239 -.836 1142.26 1556.78)"/><use href="#c" width="146.837" height="200" x="-73.419" y="-100" transform="matrix(-.2506 1.3273 1.3273 .2506 397.805 1008.368)"/><use href="#c" width="146.837" height="200" x="-73.419" y="-100" transform="scale(1.0964 -1.0964) rotate(23.643 3403.312 4703.066)"/><use href="#c" width="146.837" height="200" x="-73.419" y="-100" transform="matrix(.624 .352 .352 -.624 885.79 747.029)"/><use href="#c" width="146.837" height="200" x="-73.419" y="-100" transform="matrix(.0626 .7624 .7624 -.0626 754.745 68.254)"/><use href="#c" width="146.837" height="200" x="-73.419" y="-100" transform="matrix(.5135 1.2764 1.2764 -.5135 1813.011 1504.847)"/><use href="#c" width="146.837" height="200" x="-73.419" y="-100" transform="scale(-.9719 .9719) rotate(-86.945 557.036 962.138)"/><use href="#c" width="146.837" height="200" x="-73.419" y="-100" transform="matrix(-.022 -.701 -.701 .022 1481.242 235.583)"/><use href="#c" width="146.837" height="200" x="-73.419" y="-100" transform="matrix(-.5547 -1.0623 -1.0623 .5547 1242.21 242.578)"/><use href="#c" width="146.837" height="200" x="-73.419" y="-100" transform="matrix(-.662 .171 .171 .662 34.545 662.425)"/><use href="#c" width="146.837" height="200" x="-73.419" y="-100" transform="matrix(-.0958 -.8025 -.8025 .0958 1710.49 1028.84)"/><use href="#c" width="146.837" height="200" x="-73.419" y="-100" transform="matrix(-1.432 .1472 .1472 1.432 1427.078 693.516)"/><use href="#c" width="146.837" height="200" x="-73.419" y="-100" transform="scale(.8806 -.8806) rotate(78.278 1618.382 701.261)"/><use href="#c" width="146.837" height="200" x="-73.419" y="-100" transform="matrix(.6632 .3644 .3644 -.6632 1746.592 1575.825)"/><use href="#c" width="146.837" height="200" x="-73.419" y="-100" transform="matrix(.6171 1.2942 1.2942 -.6171 692.403 1100.862)"/><use href="#c" width="146.837" height="200" x="-73.419" y="-100" transform="matrix(-.9202 -.361 -.361 .9202 2499.44 1064.928)"/><use href="#c" width="146.837" height="200" x="-73.419" y="-100" transform="scale(-1.3462 1.3462) rotate(-7.568 6336.927 11803.251)"/><use href="#c" width="146.837" height="200" x="-73.419" y="-100" transform="scale(1.0126 -1.0126) rotate(83.769 1877.558 682.778)"/><use href="#c" width="146.837" height="200" x="-73.419" y="-100" transform="matrix(-.0235 -1.186 -1.186 .0235 1736.964 1348.21)"/><use href="#c" width="146.837" height="200" x="-73.419" y="-100" transform="matrix(-1.1111 -.1914 -.1914 1.1111 967.525 403.248)"/><use href="#c" width="146.837" height="200" x="-73.419" y="-100" transform="matrix(1.3474 -.1415 -.1415 -1.3474 1609.525 882.097)"/><use href="#c" width="146.837" height="200" x="-73.419" y="-100" transform="matrix(-.6672 -.4727 -.4727 .6672 940.816 818.178)"/><use href="#c" width="146.837" height="200" x="-73.419" y="-100" transform="scale(-.7663 .7663) rotate(-53.694 448.49 695)"/><use href="#c" width="146.837" height="200" x="-73.419" y="-100" transform="matrix(.6833 -.9923 -.9923 -.6833 2119.44 1453.05)"/><use href="#c" width="146.837" height="200" x="-73.419" y="-100" transform="scale(-1.4915 1.4915) rotate(-57.302 162.658 691.727)"/><use href="#c" width="146.837" height="200" x="-73.419" y="-100" transform="matrix(-.0562 .9001 .9001 .0562 280.204 249.647)"/><use href="#c" width="146.837" height="200" x="-73.419" y="-100" transform="scale(-.8921 .8921) rotate(62.705 -375.94 -9.808)"/><use href="#c" width="146.837" height="200" x="-73.419" y="-100" transform="scale(.895 -.895) rotate(-83.289 28.384 -1707.932)"/><use href="#c" width="146.837" height="200" x="-73.419" y="-100" transform="matrix(-.9636 .5193 .5193 .9636 734.968 1215.174)"/><use href="#c" width="146.837" height="200" x="-73.419" y="-100" transform="matrix(-.6413 .2928 .2928 .6413 783.308 934.68)"/><use href="#c" width="146.837" height="200" x="-73.419" y="-100" transform="scale(.7501 -.7501) rotate(50.691 1268.963 2027.932)"/><use href="#c" width="146.837" height="200" x="-73.419" y="-100" transform="scale(-1.233 1.233) rotate(-57.204 -971.88 1872.868)"/><use href="#c" width="146.837" height="200" x="-73.419" y="-100" transform="matrix(.3966 -.5734 -.5734 -.3966 1516.55 59.495)"/><use href="#c" width="146.837" height="200" x="-73.419" y="-100" transform="matrix(1.3626 .0433 .0433 -1.3626 2092.416 1037.715)"/><use href="#c" width="146.837" height="200" x="-73.419" y="-100" transform="scale(1.3734 -1.3734) rotate(19.608 2788.373 2943.488)"/><use href="#c" width="146.837" height="200" x="-73.419" y="-100" transform="matrix(-.6033 .3006 .3006 .6033 502.692 1499.93)"/><use href="#c" width="146.837" height="200" x="-73.419" y="-100" transform="matrix(-1.447 -.2843 -.2843 1.447 1230.296 983.885)"/><use href="#c" width="146.837" height="200" x="-73.419" y="-100" transform="matrix(-.2611 .8007 .8007 .2611 2437.46 983.845)"/><use href="#c" width="146.837" height="200" x="-73.419" y="-100" transform="matrix(-.7043 .2909 .2909 .7043 1192.056 515.837)"/><use href="#c" width="146.837" height="200" x="-73.419" y="-100" transform="matrix(-.9405 -.6318 -.6318 .9405 2039.685 519.213)"/><use href="#c" width="146.837" height="200" x="-73.419" y="-100" transform="matrix(-.9065 .8657 .8657 .9065 2451.755 1189.445)"/><use href="#c" width="146.837" height="200" x="-73.419" y="-100" transform="scale(-.9907 .9907) rotate(49.236 -2058.989 -52.62)"/><use href="#c" width="146.837" height="200" x="-73.419" y="-100" transform="matrix(-.2583 -.6324 -.6324 .2583 2550.228 994.923)"/><use href="#c" width="146.837" height="200" x="-73.419" y="-100" transform="scale(-1.3284 1.3284) rotate(-24.638 -63.144 3470.28)"/><use href="#c" width="146.837" height="200" x="-73.419" y="-100" transform="scale(.7004 -.7004) rotate(42.28 638.65 79.669)"/><use href="#c" width="146.837" height="200" x="-73.419" y="-100" transform="scale(-1.13 1.13) rotate(53.841 -2357.951 -1492.674)"/><use href="#c" width="146.837" height="200" x="-73.419" y="-100" transform="scale(1.2077 -1.2077) rotate(-88.819 191.613 -971.2)"/><use href="#c" width="146.837" height="200" x="-73.419" y="-100" transform="matrix(.6348 .3452 .3452 -.6348 2120.67 72.499)"/><use href="#c" width="146.837" height="200" x="-73.419" y="-100" transform="matrix(-1.3335 -.0125 -.0125 1.3335 255.54 625.69)"/><use href="#c" width="146.837" height="200" x="-73.419" y="-100" transform="matrix(.1567 1.0456 1.0456 -.1567 99.12 1548.12)"/><use href="#c" width="146.837" height="200" x="-73.419" y="-100" transform="matrix(1.277 .7572 .7572 -1.277 1749.683 803.674)"/><use href="#c" width="146.837" height="200" x="-73.419" y="-100" transform="matrix(.1812 .6961 .6961 -.1812 2209.476 937.134)"/><use href="#c" width="146.837" height="200" x="-73.419" y="-100" transform="scale(1.47 -1.47) rotate(70.99 635.782 266.779)"/><use href="#c" width="146.837" height="200" x="-73.419" y="-100" transform="matrix(-.0479 .7232 .7232 .0479 2116.019 189.396)"/><use href="#c" width="146.837" height="200" x="-73.419" y="-100" transform="matrix(.485 -1.1623 -1.1623 -.485 314.084 1527.642)"/><use href="#c" width="146.837" height="200" x="-73.419" y="-100" transform="scale(.9998 -.9998) rotate(6.34 4119.746 13235.489)"/><use href="#c" width="146.837" height="200" x="-73.419" y="-100" transform="matrix(.2633 1.4742 1.4742 -.2633 1745.784 504.417)"/><use href="#c" width="146.837" height="200" x="-73.419" y="-100" transform="matrix(-1.0562 .3652 .3652 1.0562 1022.449 278.077)"/><use href="#c" width="146.837" height="200" x="-73.419" y="-100" transform="matrix(.7333 .149 .149 -.7333 673.442 976.966)"/><use href="#c" width="146.837" height="200" x="-73.419" y="-100" transform="matrix(.4233 1.293 1.293 -.4233 2207.698 1182.416)"/><use href="#c" width="146.837" height="200" x="-73.419" y="-100" transform="matrix(-.712 -.4784 -.4784 .712 65.913 466.463)"/><use href="#c" width="146.837" height="200" x="-73.419" y="-100" transform="matrix(-.8952 -.8398 -.8398 .8952 464.737 368.082)"/><use href="#c" width="146.837" height="200" x="-73.419" y="-100" transform="matrix(-.7635 .4992 .4992 .7635 1335.147 347.016)"/><use href="#c" width="146.837" height="200" x="-73.419" y="-100" transform="scale(.8124 -.8124) rotate(88.011 934.381 -561.067)"/><use href="#c" width="146.837" height="200" x="-73.419" y="-100" transform="matrix(-.9078 .2919 .2919 .9078 495.885 232.71)"/><use href="#c" width="146.837" height="200" x="-73.419" y="-100" transform="matrix(-.7146 -1.1049 -1.1049 .7146 784.79 280.993)"/><use href="#c" width="146.837" height="200" x="-73.419" y="-100" transform="matrix(-.8045 .7601 .7601 .8045 632.073 29.132)"/><use href="#c" width="146.837" height="200" x="-73.419" y="-100" transform="scale(-1.233 1.233) rotate(23.488 -3807.035 -3550.748)"/><use href="#c" width="146.837" height="200" x="-73.419" y="-100" transform="matrix(.7133 .7899 .7899 -.7133 1806.064 95.59)"/><use href="#c" width="146.837" height="200" x="-73.419" y="-100" transform="matrix(-1.1145 -.1636 -.1636 1.1145 197.923 116.98)"/><use href="#c" width="146.837" height="200" x="-73.419" y="-100" transform="matrix(-1.23681 -.4049 -.4049 1.23681 1299.608 808.32)"/><use href="#c" width="146.837" height="200" x="-73.419" y="-100" transform="scale(-1.183 1.183) rotate(62.746 -337.978 96.199)"/><use href="#c" width="146.837" height="200" x="-73.419" y="-100" transform="matrix(-.4947 -1.2899 -1.2899 .4947 2340.006 688.114)"/><use href="#c" width="146.837" height="200" x="-73.419" y="-100" transform="matrix(.6578 .1682 .1682 -.6578 46.889 811.315)"/><use href="#c" width="146.837" height="200" x="-73.419" y="-100" transform="matrix(-.4439 -.5886 -.5886 .4439 732.009 1434.314)"/><use href="#c" width="146.837" height="200" x="-73.419" y="-100" transform="scale(.67 -.67) rotate(-7.582 -10581.99 -25260.93)"/><use href="#c" width="146.837" height="200" x="-73.419" y="-100" transform="matrix(-.7788 .0564 .0564 .7788 567.113 1417.801)"/><use href="#c" width="146.837" height="200" x="-73.419" y="-100" transform="matrix(.4083 .8615 .8615 -.4083 2258.286 361.685)"/><use href="#c" width="146.837" height="200" x="-73.419" y="-100" transform="matrix(.6662 .931 .931 -.6662 1283.298 660.792)"/><use href="#c" width="146.837" height="200" x="-73.419" y="-100" transform="matrix(1.036 .9928 .9928 -1.036 1816.312 1322.338)"/><use href="#c" width="146.837" height="200" x="-73.419" y="-100" transform="matrix(-1.0008 .9057 .9057 1.0008 1709.852 175.183)"/><use href="#c" width="146.837" height="200" x="-73.419" y="-100" transform="scale(1.401 -1.401) rotate(-65.442 -85.888 -1334.386)"/><use href="#c" width="146.837" height="200" x="-73.419" y="-100" transform="matrix(-1.0484 .2418 .2418 1.0484 1449.6 542.63)"/><use href="#c" width="146.837" height="200" x="-73.419" y="-100" transform="matrix(.6862 .6819 .6819 -.6862 41.392 236.026)"/><use href="#c" width="146.837" height="200" x="-73.419" y="-100" transform="matrix(.0052 1.3538 1.3538 -.0052 2365.848 551.768)"/><use href="#c" width="146.837" height="200" x="-73.419" y="-100" transform="matrix(.0491 .7057 .7057 -.0491 2257.882 853.448)"/><use href="#c" width="146.837" height="200" x="-73.419" y="-100" transform="matrix(-.4508 .8261 .8261 .4508 2002.918 812.213)"/><use href="#c" width="146.837" height="200" x="-73.419" y="-100" transform="scale(-1.062 1.062) rotate(74.673 -917.657 -316.712)"/><use href="#c" width="146.837" height="200" x="-73.419" y="-100" transform="matrix(.2089 .9352 .9352 -.2089 303.69 1114.459)"/><use href="#c" width="146.837" height="200" x="-73.419" y="-100" transform="matrix(.2013 -.9465 -.9465 -.2013 492.861 1308.59)"/><use href="#c" width="146.837" height="200" x="-73.419" y="-100" transform="matrix(.533 .5174 .5174 -.533 1865.617 1149.152)"/><use href="#c" width="146.837" height="200" x="-73.419" y="-100" transform="matrix(-.9155 -.1856 -.1856 .9155 1884.904 832.33)"/><use href="#c" width="146.837" height="200" x="-73.419" y="-100" transform="scale(-.97 .97) rotate(-71.978 24.19 1706.366)"/><use href="#c" width="146.837" height="200" x="-73.419" y="-100" transform="scale(-.817 .817) rotate(-87.531 -567.13 2371.605)"/><use href="#c" width="146.837" height="200" x="-73.419" y="-100" transform="matrix(-.2679 .8838 .8838 .2679 1907.698 758.459)"/><use href="#c" width="146.837" height="200" x="-73.419" y="-100" transform="matrix(.6865 .3587 .3587 -.6865 156.459 589.099)"/><use href="#c" width="146.837" height="200" x="-73.419" y="-100" transform="matrix(-.3787 -.6684 -.6684 .3787 68.26 1490.157)"/><use href="#c" width="146.837" height="200" x="-73.419" y="-100" transform="scale(-.912 .912) rotate(-37.43 2164.234 865.948)"/><use href="#c" width="146.837" height="200" x="-73.419" y="-100" transform="scale(.7031 -.7031) rotate(76.529 1570.48 -274.257)"/><use href="#c" width="146.837" height="200" x="-73.419" y="-100" transform="matrix(.5925 .4412 .4412 -.5925 1197.133 1386.438)"/><use href="#c" width="146.837" height="200" x="-73.419" y="-100" transform="matrix(1.0153 -.5912 -.5912 -1.0153 2072.82 721.334)"/><use href="#c" width="146.837" height="200" x="-73.419" y="-100" transform="scale(.6709 -.6709) rotate(63.141 2066.148 1658.82)"/><use href="#c" width="146.837" height="200" x="-73.419" y="-100" transform="matrix(.5486 -.4319 -.4319 -.5486 524.49 913.88)"/><use href="#c" width="146.837" height="200" x="-73.419" y="-100" transform="matrix(.9729 -.9246 -.9246 -.9729 761.93 888.431)"/><use href="#c" width="146.837" height="200" x="-73.419" y="-100" transform="scale(-1.4053 1.4053) rotate(-15.795 3001.027 6910.273)"/><use href="#c" width="146.837" height="200" x="-73.419" y="-100" transform="scale(.9116 -.9116) rotate(57.499 1709.163 2361.152)"/><use href="#c" width="146.837" height="200" x="-73.419" y="-100" transform="matrix(.096 .8555 .8555 -.096 2365.185 1158.82)"/><use href="#c" width="146.837" height="200" x="-73.419" y="-100" transform="scale(-1.2968 1.2968) rotate(-74.987 255.83 974.791)"/><use href="#c" width="146.837" height="200" x="-73.419" y="-100" transform="scale(-1.1414 1.1414) rotate(-88.901 -219.342 867.456)"/><use href="#c" width="146.837" height="200" x="-73.419" y="-100" transform="matrix(.5744 .4428 .4428 -.5744 1087.151 1092.911)"/><use href="#c" width="146.837" height="200" x="-73.419" y="-100" transform="matrix(.5177 .4359 .4359 -.5177 28.932 1311.441)"/><use href="#c" width="146.837" height="200" x="-73.419" y="-100" transform="matrix(.6379 .7063 .7063 -.6379 977.638 1200.175)"/><use href="#c" width="146.837" height="200" x="-73.419" y="-100" transform="matrix(-.2206 1.2691 1.2691 .2206 681.937 526.448)"/><use href="#c" width="146.837" height="200" x="-73.419" y="-100" transform="matrix(-1.2692 .0722 .0722 1.2692 869.427 935.778)"/><use href="#c" width="146.837" height="200" x="-73.419" y="-100" transform="matrix(.6221 .4566 .4566 -.6221 2508.263 513.299)"/><use href="#c" width="146.837" height="200" x="-73.419" y="-100" transform="matrix(-.3176 1.4248 1.4248 .3176 2321.381 876.823)"/><use href="#c" width="146.837" height="200" x="-73.419" y="-100" transform="matrix(-.4998 -.9205 -.9205 .4998 955.016 94.852)"/><use href="#c" width="146.837" height="200" x="-73.419" y="-100" transform="scale(-.6846 .6846) rotate(-71.803 470.063 2014.617)"/><use href="#c" width="146.837" height="200" x="-73.419" y="-100" transform="scale(1.2356 -1.2356) rotate(60.439 882.785 -393.315)"/><use href="#c" width="146.837" height="200" x="-73.419" y="-100" transform="matrix(-.6612 -.5533 -.5533 .6612 403.732 714.005)"/><use href="#c" width="146.837" height="200" x="-73.419" y="-100" transform="matrix(.3569 .6224 .6224 -.3569 569.673 878.284)"/><use href="#c" width="146.837" height="200" x="-73.419" y="-100" transform="matrix(.0408 .6722 .6722 -.0408 838.91 46.096)"/><use href="#c" width="146.837" height="200" x="-73.419" y="-100" transform="matrix(.5373 .587 .587 -.5373 474.327 1433.84)"/><use href="#c" width="146.837" height="200" x="-73.419" y="-100" transform="matrix(-.702 -.0712 -.0712 .702 2290.197 430.798)"/><use href="#c" width="146.837" height="200" x="-73.419" y="-100" transform="matrix(.1157 1.2843 1.2843 -.1157 783.876 1396.593)"/><use href="#c" width="146.837" height="200" x="-73.419" y="-100" transform="matrix(.127 .9998 .9998 -.127 1959.234 1554.163)"/><use href="#c" width="146.837" height="200" x="-73.419" y="-100" transform="scale(1.3346 -1.3346) rotate(58.5 1248.541 1244.334)"/><use href="#c" width="146.837" height="200" x="-73.419" y="-100" transform="matrix(.099 .8498 .8498 -.099 656.043 396.078)"/><use href="#c" width="146.837" height="200" x="-73.419" y="-100" transform="scale(-1.4384 1.4384) rotate(-62.108 182.55 937.858)"/><use href="#c" width="146.837" height="200" x="-73.419" y="-100" transform="matrix(-.4101 .5465 .5465 .4101 980.206 26.194)"/><use href="#c" width="146.837" height="200" x="-73.419" y="-100" transform="matrix(-1.0783 .1123 .1123 1.0783 1789.035 287.846)"/><use href="#c" width="146.837" height="200" x="-73.419" y="-100" transform="scale(1.0872 -1.0872) rotate(13.506 2370.684 4639.062)"/><use href="#c" width="146.837" height="200" x="-73.419" y="-100" transform="matrix(-1.4477 -.0397 -.0397 1.4477 1470.14 1415.482)"/><use href="#c" width="146.837" height="200" x="-73.419" y="-100" transform="scale(-.696 .696) rotate(-23.087 -1196.875 8956.683)"/><use href="#c" width="146.837" height="200" x="-73.419" y="-100" transform="matrix(.5035 -.7054 -.7054 -.5035 2255.15 233.221)"/><use href="#c" width="146.837" height="200" x="-73.419" y="-100" transform="matrix(-1.1729 .8832 .8832 1.1729 544.008 421.212)"/><use href="#c" width="146.837" height="200" x="-73.419" y="-100" transform="matrix(.3439 -.942 -.942 -.3439 1479.726 1316.208)"/><use href="#c" width="146.837" height="200" x="-73.419" y="-100" transform="matrix(-.1305 .6849 .6849 .1305 307.742 974.863)"/><use href="#c" width="146.837" height="200" x="-73.419" y="-100" transform="scale(-.7207 .7207) rotate(-62.902 814.767 1473.753)"/><use href="#c" width="146.837" height="200" x="-73.419" y="-100" transform="matrix(1.0696 .4573 .4573 -1.0696 2177.066 1354.723)"/><use href="#c" width="146.837" height="200" x="-73.419" y="-100" transform="scale(-1.185 1.185) rotate(-89.067 421.96 709.732)"/><use href="#c" width="146.837" height="200" x="-73.419" y="-100" transform="matrix(-.416 -.5395 -.5395 .416 220.183 1093.23)"/><use href="#c" width="146.837" height="200" x="-73.419" y="-100" transform="scale(1.4161 -1.4161) rotate(7.188 7795.172 7133.356)"/><use href="#c" width="146.837" height="200" x="-73.419" y="-100" transform="scale(1.441 -1.441) rotate(21.823 1402.656 3755.99)"/><use href="#c" width="146.837" height="200" x="-73.419" y="-100" transform="scale(1.4026 -1.4026) rotate(8.511 6414.377 9218.348)"/><use href="#c" width="146.837" height="200" x="-73.419" y="-100" transform="scale(-.707 .707) rotate(-82.368 -495.638 792.918)"/><use href="#c" width="146.837" height="200" x="-73.419" y="-100" transform="scale(-.671 .671) rotate(-26.027 1772.544 606.852)"/><use href="#c" width="146.837" height="200" x="-73.419" y="-100" transform="matrix(-.4235 -1.2799 -1.2799 .4235 2397.055 185.933)"/><use href="#c" width="146.837" height="200" x="-73.419" y="-100" transform="matrix(-.7087 -1.0142 -1.0142 .7087 1678.355 342.336)"/><use href="#c" width="146.837" height="200" x="-73.419" y="-100" transform="scale(-1.3654 1.3654) rotate(-54.536 689.61 950.122)"/><use href="#c" width="146.837" height="200" x="-73.419" y="-100" transform="matrix(.0289 .9402 .9402 -.0289 597.753 1547.66)"/><use href="#c" width="146.837" height="200" x="-73.419" y="-100" transform="scale(1.282 -1.282) rotate(67.005 1270.183 127.312)"/><use href="#c" width="146.837" height="200" x="-73.419" y="-100" transform="matrix(.3868 1.2145 1.2145 -.3868 1578.696 693.85)"/><use href="#c" width="146.837" height="200" x="-73.419" y="-100" transform="scale(.6993 -.6993) rotate(47.747 723.102 825.226)"/><use href="#c" width="146.837" height="200" x="-73.419" y="-100" transform="matrix(-.5716 .5014 .5014 .5716 1136.29 588.548)"/><use href="#c" width="146.837" height="200" x="-73.419" y="-100" transform="matrix(-.2982 1.3214 1.3214 .2982 1575.246 95.968)"/><use href="#c" width="146.837" height="200" x="-73.419" y="-100" transform="matrix(.4054 .5408 .5408 -.4054 1414.227 485.305)"/><use href="#c" width="146.837" height="200" x="-73.419" y="-100" transform="matrix(.7869 -.6863 -.6863 -.7869 2235.704 120.268)"/><use href="#c" width="146.837" height="200" x="-73.419" y="-100" transform="matrix(1.0824 .6486 .6486 -1.0824 163.263 840.172)"/><use href="#c" width="146.837" height="200" x="-73.419" y="-100" transform="matrix(.8478 .2124 .2124 -.8478 968.21 1429.61)"/><use href="#c" width="146.837" height="200" x="-73.419" y="-100" transform="scale(.7219 -.7219) rotate(80.004 2099.496 155.79)"/><use href="#c" width="146.837" height="200" x="-73.419" y="-100" transform="matrix(-1.0559 .901 .901 1.0559 2123.666 787.441)"/><use href="#c" width="146.837" height="200" x="-73.419" y="-100" transform="matrix(-.7334 .1177 .1177 .7334 1040.29 1511.516)"/><use href="#c" width="146.837" height="200" x="-73.419" y="-100" transform="matrix(-.3796 -.9437 -.9437 .3796 2203.141 448.369)"/><use href="#c" width="146.837" height="200" x="-73.419" y="-100" transform="scale(-.8502 .8502) rotate(-52.584 370.987 992.775)"/><use href="#c" width="146.837" height="200" x="-73.419" y="-100" transform="matrix(.2508 -1.0664 -1.0664 -.2508 946.586 255.9)"/><use href="#c" width="146.837" height="200" x="-73.419" y="-100" transform="matrix(-.6503 -1.1815 -1.1815 .6503 1880.578 628.731)"/><use href="#c" width="146.837" height="200" x="-73.419" y="-100" transform="matrix(-1.0903 -.1045 -.1045 1.0903 742.601 150.69)"/><use href="#c" width="146.837" height="200" x="-73.419" y="-100" transform="matrix(-.0777 .6797 .6797 .0777 336.978 1231.898)"/><use href="#c" width="146.837" height="200" x="-73.419" y="-100" transform="matrix(.6539 .555 .555 -.6539 43.184 371.422)"/><use href="#c" width="146.837" height="200" x="-73.419" y="-100" transform="matrix(-.6914 -.0192 -.0192 .6914 2517.33 750.639)"/><use href="#c" width="146.837" height="200" x="-73.419" y="-100" transform="matrix(-.39 .5681 .5681 .39 1219.114 1441.023)"/><use href="#c" width="146.837" height="200" x="-73.419" y="-100" transform="scale(-.7308 .7308) rotate(-64.589 145.07 2300.246)"/><use href="#c" width="146.837" height="200" x="-73.419" y="-100" transform="scale(1.1776 -1.1776) rotate(56.141 1291.6 228.804)"/><use href="#c" width="146.837" height="200" x="-73.419" y="-100" transform="scale(1.409 -1.409) rotate(7.656 1096.807 6472.565)"/><use href="#c" width="146.837" height="200" x="-73.419" y="-100" transform="scale(.869 -.869) rotate(25.02 4122.872 3997.773)"/><use href="#c" width="146.837" height="200" x="-73.419" y="-100" transform="matrix(.8866 .4021 .4021 -.8866 1383.074 159.231)"/><use href="#c" width="146.837" height="200" x="-73.419" y="-100" transform="matrix(.1413 .9209 .9209 -.1413 1906.68 623.821)"/><use href="#c" width="146.837" height="200" x="-73.419" y="-100" transform="matrix(.5232 .5881 .5881 -.5232 2224.9 1460.367)"/><use href="#c" width="146.837" height="200" x="-73.419" y="-100" transform="matrix(.1328 1.46 1.46 -.1328 134.68 1363.519)"/><use href="#c" width="146.837" height="200" x="-73.419" y="-100" transform="matrix(-.7357 -.6288 -.6288 .7357 2268.09 981.39)"/><use href="#c" width="146.837" height="200" x="-73.419" y="-100" transform="scale(-1.289 1.289) rotate(75.929 -1617.147 -693.98)"/><use href="#c" width="146.837" height="200" x="-73.419" y="-100" transform="matrix(.3495 .7494 .7494 -.3495 384.837 283.233)"/><use href="#c" width="146.837" height="200" x="-73.419" y="-100" transform="scale(.7625 -.7625) rotate(18.632 5456.197 7147.057)"/><use href="#c" width="146.837" height="200" x="-73.419" y="-100" transform="scale(-.939 .939) rotate(-63.552 380.374 1569.194)"/><use href="#c" width="146.837" height="200" x="-73.419" y="-100" transform="matrix(.8044 .2297 .2297 -.8044 843.163 830.631)"/><use href="#c" width="146.837" height="200" x="-73.419" y="-100" transform="scale(.7954 -.7954) rotate(21.553 4611.706 3754.062)"/><use href="#c" width="146.837" height="200" x="-73.419" y="-100" transform="matrix(.3492 .8107 .8107 -.3492 2030.63 173.12)"/><use href="#c" width="146.837" height="200" x="-73.419" y="-100" transform="matrix(-.23 .914 .914 .23 2413.907 721.716)"/><use href="#c" width="146.837" height="200" x="-73.419" y="-100" transform="matrix(-.9574 .4481 .4481 .9574 1323.146 205.6)"/><use href="#c" width="146.837" height="200" x="-73.419" y="-100" transform="scale(-.89 .89) rotate(-37.462 1677.617 702.123)"/><use href="#c" width="146.837" height="200" x="-73.419" y="-100" transform="matrix(1.2478 .5278 .5278 -1.2478 830.037 617.08)"/><use href="#c" width="146.837" height="200" x="-73.419" y="-100" transform="matrix(-1.2528 .3195 .3195 1.2528 184.432 938.817)"/><use href="#c" width="146.837" height="200" x="-73.419" y="-100" transform="scale(.728 -.728) rotate(69.706 2314.569 1041.45)"/><use href="#c" width="146.837" height="200" x="-73.419" y="-100" transform="matrix(-1.2626 -.614 -.614 1.2626 1084.577 106.36)"/><use href="#c" width="146.837" height="200" x="-73.419" y="-100" transform="scale(-1.491 1.491) rotate(-8.831 2182.913 1897.72)"/><use href="#c" width="146.837" height="200" x="-73.419" y="-100" transform="matrix(.5832 -.694 -.694 -.5832 452.755 1569.482)"/><use href="#c" width="146.837" height="200" x="-73.419" y="-100" transform="matrix(.2526 .9014 .9014 -.2526 1047.165 544.86)"/><use href="#c" width="146.837" height="200" x="-73.419" y="-100" transform="matrix(-.5524 .4499 .4499 .5524 2291.473 32.743)"/><use href="#c" width="146.837" height="200" x="-73.419" y="-100" transform="scale(1.4144 -1.4144) rotate(42.43 266.153 331.302)"/><use href="#c" width="146.837" height="200" x="-73.419" y="-100" transform="matrix(.3887 1.0124 1.0124 -.3887 487.45 99.724)"/><use href="#c" width="146.837" height="200" x="-73.419" y="-100" transform="scale(1.304 -1.304) rotate(65.855 1179.212 1310.009)"/><use href="#c" width="146.837" height="200" x="-73.419" y="-100" transform="matrix(.6717 1.228 1.228 -.6717 1588.996 561.386)"/><use href="#c" width="146.837" height="200" x="-73.419" y="-100" transform="matrix(.2401 .7321 .7321 -.2401 1313.101 518.421)"/><use href="#c" width="146.837" height="200" x="-73.419" y="-100" transform="matrix(.0755 .7314 .7314 -.0755 1223.864 1559.75)"/><use href="#c" width="146.837" height="200" x="-73.419" y="-100" transform="matrix(.5882 -.5074 -.5074 -.5882 668.843 152.1)"/><use href="#c" width="146.837" height="200" x="-73.419" y="-100" transform="matrix(-.2128 .8196 .8196 .2128 1855.844 169.234)"/><use href="#c" width="146.837" height="200" x="-73.419" y="-100" transform="matrix(-.3986 -.7058 -.7058 .3986 2051.09 39.063)"/><use href="#c" width="146.837" height="200" x="-73.419" y="-100" transform="matrix(-.3048 .881 .881 .3048 1554.323 250.423)"/><use href="#c" width="146.837" height="200" x="-73.419" y="-100" transform="matrix(.6569 .4476 .4476 -.6569 439.1 870.523)"/><use href="#c" width="146.837" height="200" x="-73.419" y="-100" transform="matrix(-.8889 -.1373 -.1373 .8889 1527.852 416.089)"/><use href="#c" width="146.837" height="200" x="-73.419" y="-100" transform="scale(-.8226 .8226) rotate(-69.082 -206.1 2850.101)"/><use href="#c" width="146.837" height="200" x="-73.419" y="-100" transform="scale(-1.181 1.181) rotate(86.432 -681.237 178.07)"/><use href="#c" width="146.837" height="200" x="-73.419" y="-100" transform="matrix(.0798 .8867 .8867 -.0798 1315.863 1536.778)"/><use href="#c" width="146.837" height="200" x="-73.419" y="-100" transform="matrix(-.8611 .9733 .9733 .8611 888.674 1502.45)"/><use href="#c" width="146.837" height="200" x="-73.419" y="-100" transform="matrix(-.8348 -1.019 -1.019 .8348 1679.066 1438.382)"/><use href="#c" width="146.837" height="200" x="-73.419" y="-100" transform="matrix(.5055 .9174 .9174 -.5055 274.64 426.673)"/><use href="#c" width="146.837" height="200" x="-73.419" y="-100" transform="scale(.85 -.85) rotate(27.665 2748.651 5179.266)"/><use href="#c" width="146.837" height="200" x="-73.419" y="-100" transform="matrix(1.236 -.0657 -.0657 -1.236 1213.974 1263.431)"/></g></svg>